<svg xmlns="http://www.w3.org/2000/svg" viewBox="0 0 500 500"><g id="freepik--background-complete--inject-17"><rect x="402.07" y="387.65" width="35.16" height="11.19" transform="translate(839.3 786.48) rotate(180)" style="fill:#ebebeb"></rect><rect x="304.41" y="88.4" width="35.16" height="11.19" transform="translate(643.99 187.98) rotate(180)" style="fill:#ebebeb"></rect><path d="M421.68,413l17.7-.3,8.75-.12,8.71,0-.46.46,0-11.19.5.5-17.58-.07-8.79-.09-8.79-.11.24-.23Zm0,0-.23-11.19v-.24h.24l8.79-.11,8.79-.08,17.58-.07h.5v.5l0,11.19v.45h-.45l-8.87,0-8.83-.12Z" style="fill:#ebebeb"></path><path d="M102.37,332.76l17.7-.29,8.74-.13,8.71,0-.45.46,0-11.19.5.5L119.94,322l-8.78-.09-8.79-.1.23-.24Zm0,0-.24-11.19v-.24h.25l8.79-.11,8.78-.08,17.58-.07h.5v.5l0,11.19v.46h-.46l-8.86,0-8.84-.12Z" style="fill:#ebebeb"></path><path d="M122,346.87l17.7-.3,8.74-.12,8.72,0-.46.46,0-11.19.5.5-17.58-.07-8.79-.09-8.79-.1.24-.24Zm0,0-.24-11.19v-.24H122l8.79-.11,8.79-.08,17.58-.07h.5v.5l0,11.19v.46h-.45l-8.87,0-8.83-.12Z" style="fill:#ebebeb"></path><rect x="141.51" y="321.57" width="35.16" height="11.19" transform="translate(318.18 654.33) rotate(180)" style="fill:#ebebeb"></rect><rect x="43.16" y="401.76" width="35.16" height="11.19" transform="translate(121.48 814.7) rotate(180)" style="fill:#ebebeb"></rect><rect x="62.77" y="56.21" width="35.16" height="11.19" transform="translate(160.7 123.6) rotate(180)" style="fill:#ebebeb"></rect><path d="M43.16,81.51l17.7-.3,8.75-.12,8.71,0-.46.46,0-11.19.5.5-17.58-.07L52,70.66l-8.79-.11.24-.23Zm0,0-.24-11.19v-.24h.24L52,70l8.79-.09,17.58-.06h.5v.51l0,11.19V82h-.45l-8.87,0-8.83-.12Z" style="fill:#ebebeb"></path><path d="M402.07,67.4l17.7-.3,8.75-.12,8.71,0-.46.46,0-11.19.5.5-17.58-.07-8.79-.09-8.79-.11.24-.23Zm0,0-.24-11.19V56h.24l8.79-.11,8.79-.09,17.58-.06h.5v.51l-.05,11.19v.45h-.45l-8.87,0-8.83-.12Z" style="fill:#ebebeb"></path><rect x="351.94" y="120.58" width="91.46" height="94.09" style="fill:#dbdbdb"></rect><rect x="357.36" y="126" width="80.63" height="83.26" style="fill:#fff"></rect><rect x="443.41" y="120.58" width="2.35" height="94.09" style="fill:#c7c7c7"></rect><rect x="54.24" y="105.58" width="101.46" height="104.09" style="fill:#ebebeb"></rect><rect x="57.89" y="108.81" width="94.17" height="97.64" style="fill:#fff"></rect><rect x="70.95" y="121.5" width="68.05" height="72.24" style="fill:#ebebeb"></rect><rect x="155.71" y="105.58" width="2.35" height="104.09" style="fill:#dbdbdb"></rect><rect x="385.13" y="252.16" width="27.45" height="12.14" transform="translate(797.7 516.45) rotate(180)" style="fill:#fff"></rect><path d="M385.13,264.29,399,264c4.57-.07,9.09-.17,13.61-.17l-.44.44-.06-12.13.5.5-13.72-.07c-4.57,0-9.15-.11-13.72-.16l.28-.27C385.34,256.13,385.21,260.15,385.13,264.29Zm0,0c-.09-4-.22-8-.28-12.13v-.28h.28c4.57,0,9.15-.16,13.72-.16l13.72-.06h.5v.51L413,264.29v.45h-.45c-4.63,0-9.25-.1-13.83-.17Z" style="fill:#dbdbdb"></path><path d="M407.73,255.59c-3,.21-5.92.22-8.88.25s-5.92,0-8.88-.25c3-.21,5.92-.22,8.88-.25S404.77,255.39,407.73,255.59Z" style="fill:#dbdbdb"></path><path d="M407.73,260.86c-3,.2-5.92.22-8.88.25s-5.92,0-8.88-.25c3-.21,5.92-.22,8.88-.25S404.77,260.65,407.73,260.86Z" style="fill:#dbdbdb"></path><path d="M409.86,258.23c-3.67.2-7.34.22-11,.25s-7.34-.05-11-.25c3.67-.21,7.34-.23,11-.25S406.19,258,409.86,258.23Z" style="fill:#dbdbdb"></path><rect x="92.43" y="252.16" width="27.45" height="12.14" transform="translate(212.3 516.45) rotate(180)" style="fill:#fff"></rect><path d="M92.43,264.29l13.83-.27c4.57-.07,9.09-.17,13.61-.17l-.44.44-.06-12.13.5.5-13.72-.07c-4.57,0-9.15-.11-13.72-.16l.28-.27C92.64,256.13,92.51,260.15,92.43,264.29Zm0,0c-.09-4-.22-8-.28-12.13v-.28h.29c4.57,0,9.15-.16,13.72-.16l13.72-.06h.5v.51l-.05,12.13v.45h-.44c-4.63,0-9.25-.1-13.83-.17Z" style="fill:#dbdbdb"></path><path d="M115,255.59c-3,.21-5.92.22-8.88.25s-5.92,0-8.88-.25c3-.21,5.92-.22,8.88-.25S112.07,255.39,115,255.59Z" style="fill:#dbdbdb"></path><path d="M115,260.86c-3,.2-5.92.22-8.88.25s-5.92,0-8.88-.25c3-.21,5.92-.22,8.88-.25S112.07,260.65,115,260.86Z" style="fill:#dbdbdb"></path><path d="M117.16,258.23c-3.67.2-7.34.22-11,.25s-7.34-.05-11-.25c3.67-.21,7.34-.23,11-.25S113.49,258,117.16,258.23Z" style="fill:#dbdbdb"></path><polygon points="338.38 40.55 161.62 40.55 165.62 23.16 334.38 23.16 338.38 40.55" style="fill:#ebebeb"></polygon><rect x="169.41" y="19.27" width="161.18" height="3.89" style="fill:#dbdbdb"></rect><rect x="180.43" width="3.55" height="19.27" style="fill:#ebebeb"></rect><rect x="316.03" width="3.55" height="19.27" style="fill:#ebebeb"></rect></g><g id="freepik--Floor--inject-17"><polygon points="40.23 455.7 92.67 455.46 145.11 455.37 250 455.2 354.89 455.37 407.33 455.46 459.77 455.7 407.33 455.95 354.89 456.04 250 456.2 145.11 456.03 92.67 455.95 40.23 455.7" style="fill:#263238"></polygon></g><g id="freepik--Plant--inject-17"><path d="M108.14,342.11a91.89,91.89,0,0,0-2.14-15c-1.06-4.45-2.56-9-5.37-12.68-2.57-3.36-6.25-6-10.54-6.57-4.12-.5-8,1.34-11.08,3.94-3.82,3.22-6.75,7.48-9.5,11.61a144.58,144.58,0,0,0-8.21,14.36c-.08.17.17.3.25.14a90,90,0,0,1,7.34-12,75.29,75.29,0,0,1,8.45-10.23c2.83-2.76,6.43-5.35,10.53-5.48s7.85,2.16,10.31,5.31c2.75,3.52,4.15,7.91,5.2,12.19A92.27,92.27,0,0,1,105.49,342c.81,9.91,1,19.88,1.25,29.81.13,5.62.2,11.25.25,16.87q0,4.28.07,8.55a52.69,52.69,0,0,0,.33,8.24c.09.55,1,.5,1.09,0a47.32,47.32,0,0,0,.38-7.81q.06-4.05.1-8.1c0-5.25.07-10.5.06-15.75C109,363.21,108.86,352.63,108.14,342.11Z" style="fill:#263238"></path><path d="M75.81,316.11c-.89.36.32-10.2-3.84-11.55-5.88-1.91-19.36,1.54-26.84,11.55a22.08,22.08,0,0,0-3.25,6.73c3.71-1.8,16-7.48,19-5.74,2.8,1.59-14.78,7.1-20.19,10.65a41.39,41.39,0,0,0-.49,4.43c3.17-2.18,11.79-7.83,15.64-7.83,4.29,0-9.92,7.51-15.66,12.9a45.19,45.19,0,0,0,3.31,15.23c1.48-2.78,4.72-8.2,8.9-11.13,5.81-4.05,8.35,2.47,1,7.63-3.9,2.76-6.72,5-8.49,6.56a30,30,0,0,0,6.5,8.42A23.74,23.74,0,0,1,61,357.44c1.41-.5,3.73-1.14,6.52-2.08a60.49,60.49,0,0,0,2-10.82c.16-4.29,5.25-1.91,3.18,5.72-.39,1.43-.74,2.61-1.08,3.6a28.62,28.62,0,0,0,6.22-3.05c.28-2.49-.14-8.25-1.17-13.67-1.27-6.76,3.88-7.23,5,1.27.51,3.93-.23,8-.48,10.65,5.82-3.39,10.64-10.28,10.64-10.28a25.83,25.83,0,0,0-4-10.65c-2.86-4.31.24-6,3.1-2.11,1.6,2.17,2.55,5.82,3.07,8.62C100.13,314.13,92.53,309.38,75.81,316.11Zm-27.9,22.46c-1.59-2.3,3.9-6.52,5.09-5.08C54.53,335.32,49.5,340.88,47.91,338.57Zm36.67-9.45c-2.22,1.61-4.35-3.72-2.91-4.64S86.48,327.74,84.58,329.12Z" style="fill:#00A3EA"></path><path d="M79.48,326.12c-.76-1.5-1.54-3-2.4-4.41a25.76,25.76,0,0,0-2.77-4c.24-.29.47-.59.72-.88a.12.12,0,0,0-.18-.17c-.28.32-.54.65-.81,1a.27.27,0,0,0-.12.14c-1,1.24-2,2.52-2.94,3.82a43.28,43.28,0,0,0-4.85,1.4c-1.64.55-3.27,1.12-4.86,1.8-.17.07-.08.34.08.27,1.58-.7,3.18-1.38,4.82-1.93s3.12-.93,4.69-1.37c-.51.72-1,1.45-1.49,2.18a57.77,57.77,0,0,0-8.59,3.51c-2.9,1.37-5.69,3-8.47,4.58-.16.09,0,.34.15.24,2.72-1.62,5.55-3,8.43-4.36,2.68-1.26,5.47-2.29,8.18-3.49-6.83,10.66-10.92,22.95-16.4,34.33-.08.17.18.31.25.14,1.67-4,3.6-7.88,5.42-11.81,1.63-3.52,3.23-7.07,4.86-10.59q.72-1.55,1.47-3.09c-.3,5.69-.17,11.48-1.11,17.1a.14.14,0,1,0,.28,0c.4-6.08,1.47-12.06,1.43-18.18,0,0,0,0,0-.08,1.16-2.32,2.39-4.62,3.73-6.85,2.26,5.33,4.64,10.73,5.69,16.45,0,.18.32.1.27-.08-1.53-5.73-3-11.47-5.72-16.77A63.85,63.85,0,0,1,74,318.08c.76,1.41,1.73,2.75,2.59,4.1s1.67,2.66,2.45,4a57.18,57.18,0,0,1,4.27,9c.06.18.34.09.27-.08C82.29,332.11,81,329.06,79.48,326.12Z" style="fill:#263238"></path><path d="M133.3,339.07c-4.38-4.39-9.47-10.16-16.25-10.15-6.53,0-11.34,5.27-14.1,10.7C100.06,345.3,99,351.73,98.2,358a221.29,221.29,0,0,0-1.73,22.57c-.12,4.19-.1,8.39,0,12.58a84.12,84.12,0,0,0,1,12.69c.12.67,1.21.7,1.25,0,.2-3.53,0-7.08,0-10.61s0-6.95.16-10.43c.26-7,.77-14.05,1.59-21,.72-6.1,1.3-12.38,3.12-18.28,1.65-5.31,4.74-11.4,10.13-13.73,7.36-3.19,14.55,2.63,19.36,7.55C133.21,339.38,133.43,339.2,133.3,339.07Z" style="fill:#263238"></path><path d="M146.63,345.94c-5.87-.59-4.26-3.79,1.09-2.39a24.31,24.31,0,0,1,8,3.83,34.74,34.74,0,0,0-2.36-13.91c-4.91-1.23-9.37.93-14,3.07s-7.64-3.42-2.26-6.09a17.07,17.07,0,0,1,14.53-.26c-.42-.74-.85-1.42-1.3-2.06a24.67,24.67,0,0,0-4.49-5c-4,.33-6.23,2.8-7.41,3.58-1.69,1.11-4.35-.19-2.66-2.59,1.31-1.88,4.59-2.74,7.3-3-4.83-2.84-9.65-2.85-12.38-1.61-4.73,2.16-3.4,14.63-3.4,14.63s-12.42-6.64-16.49-1.41a15.31,15.31,0,0,0-2.57,6.1c4.39-1.62,9.79-2,10.29.63s-6.89,2-10.75,2.4c-.46,5.56.84,12.07,5.27,16.66,3.77-7.25,12.15-12.75,13.35-8.76s-7.81,5-11.5,10.43a24.14,24.14,0,0,0,5.17,2.88c2-3,5.36-7.17,7-5.91s-2.61,4.2-5.35,6.57a78.92,78.92,0,0,0,11.95,3.29c1-4.19,2.91-8.09,4.75-7.73s-1.73,4.73-3.27,8a119.47,119.47,0,0,0,16.43,2.07c.34-.08,2.6-6.69,3.61-14.9a23.82,23.82,0,0,0-8.53-1.71c-4.16-.19-4.55-4.92,1.67-4.26a16,16,0,0,1,7.18,3c.06-.87.11-1.75.14-2.65h0A23.52,23.52,0,0,0,146.63,345.94Zm-1.54-6.47c.63-1.4,4.42-.9,4,.83S144.56,340.67,145.09,339.47ZM114,351.21c-.23-1.18,2.31-2.26,2.67-1.31S114.33,352.78,114,351.21Zm17.87,9.69c-2-1.06.87-5.66,2.72-4.92C136.11,356.59,133.9,362,131.88,360.9Z" style="fill:#00A3EA"></path><path d="M150.85,368.51c-2.78-4.67-5.54-9.35-8.47-13.93-1.36-2.13-2.79-4.22-4.27-6.27l.66-.16,1.11-.21c.86-.15,1.72-.27,2.59-.36s1.63-.13,2.44-.14a12.06,12.06,0,0,1,2.62.14.07.07,0,1,0,0-.14c-.87,0-1.76-.08-2.63-.09s-1.7,0-2.54.06-1.59.13-2.38.25c-.43.06-.86.14-1.3.23a7.2,7.2,0,0,0-.78.16c-1.51-2.08-3.08-4.11-4.7-6.11a56.23,56.23,0,0,1,15.27-4.87c.09,0,0-.15,0-.13A51.76,51.76,0,0,0,133,341.63l-2.69-3.27c-1-1.21-2.09-2.39-3-3.68-.06-.09-.19,0-.12.08a53,53,0,0,1,3.54,4.33s0,0,0,0a51.77,51.77,0,0,0-5.68,4.56c-1.85,1.64-3.67,3.34-5.42,5.09-.07.06,0,.16.09.1q2.61-2.6,5.43-4.94c1.89-1.57,3.87-3,5.76-4.56l0,0c.43.58.86,1.15,1.3,1.71l.65.86,0,.06c.72.94,1.45,1.89,2.16,2.84a23.76,23.76,0,0,0-2.15,3.89c-.63,1.32-1.17,2.67-1.67,4a59.88,59.88,0,0,0-2.33,8.74c0,.09.12.13.14,0a51.39,51.39,0,0,1,2.54-8.57c.54-1.42,1.16-2.81,1.79-4.2s1.28-2.47,1.83-3.75l1.86,2.51c.17.25.34.5.52.74,0,.06,0,.13.06.13h0c1.92,2.67,3.74,5.41,5.51,8.18a2.5,2.5,0,0,0-.24.61c-.11.33-.22.67-.32,1-.2.69-.36,1.38-.49,2.08s-.21,1.32-.27,2a20.89,20.89,0,0,1-.17,2.26c0,.11.15.12.14,0a7.44,7.44,0,0,1,.15-2.1c.1-.72.24-1.44.4-2.15s.32-1.28.52-1.91c.09-.31.19-.62.3-.94.06-.16.14-.34.19-.51.83,1.3,1.66,2.61,2.47,3.92l4.79,7.83C150.72,368.75,150.93,368.64,150.85,368.51Z" style="fill:#263238"></path><path d="M107.85,404.31c-.07-2.64-.49-5.3-.78-7.93s-.58-5.28-.86-7.92c-.55-5.09-.85-10.29-2-15.28A22.22,22.22,0,0,0,98,361.76a10.13,10.13,0,0,0-6.1-2.91,10.51,10.51,0,0,0-6.47,2,22.51,22.51,0,0,0-5.44,5.74,55.93,55.93,0,0,0-4.25,6.89c0,.09.1.15.15.06A35.29,35.29,0,0,1,85,363.24a10.86,10.86,0,0,1,5.79-2.41,7.9,7.9,0,0,1,5.61,2.24c3.08,2.68,4.86,6.62,5.93,10.49,1.26,4.58,1.66,9.41,2.29,14.11.37,2.8.73,5.59,1.1,8.39s.6,5.63,1.19,8.38A.46.46,0,0,0,107.85,404.31Z" style="fill:#263238"></path><path d="M91.43,364.59c-6.07-.12-12.5,4.4-12.5,4.4s3.42-11.81-6.07-11.43c-5.65.23-12.69,6.15-14.11,15.38,2.18-1.16,6.77-3.38,10.4-3.44,4.91-.09,5.25,3.75-1.54,4.34a42,42,0,0,0-9.09,1.51,25.16,25.16,0,0,0,1.14,8.53c3.78-2.3,10.25-4.74,10.44-1.57.14,2.35-6.53,2.54-9.83,3.36a40.09,40.09,0,0,0,5.66,10.08,91.88,91.88,0,0,0,13.68-3.08,26.33,26.33,0,0,0-.42-4.95c-.81-4.21,2.29-4.29,2.69-.24A14.75,14.75,0,0,1,81.6,392a40.71,40.71,0,0,0,8.77-4.14,26.78,26.78,0,0,0-1.94-9.34c-1.21-3.29,1.19-5.18,3.21-1.39,1.3,2.44.77,7,.34,9.6a14.73,14.73,0,0,0,2.87-2.94C101.34,374.76,97.49,364.72,91.43,364.59Zm-26.18,2.18c.22-1.7,4.46-1.38,4.25-.06S65,368.69,65.25,366.77Zm-4.72,13.88c.41-1.1,2.24-.95,2.15-.08S60.25,381.36,60.53,380.65Zm25.16,6c-2.46.1-1.65-5-.21-5.22C86.69,381.21,87.57,386.52,85.69,386.6Z" style="fill:#00A3EA"></path><path d="M83.5,387.06c-.24-.63-.45-1.28-.65-1.93.18.66.35,1.32.47,2C83.34,387.24,83.54,387.19,83.5,387.06Z" style="fill:#263238"></path><path d="M81,378.84c-.44-1.31-.94-2.61-1.45-3.89-.28-.69-.56-1.37-.86-2.05a8.23,8.23,0,0,0-.84-1.71,12.93,12.93,0,0,0,.76-1.66s0-.09-.08,0a19.23,19.23,0,0,0-1.85,2.87c-.27.45-.52.9-.78,1.35a12.23,12.23,0,0,0-1.59.25c-.57.1-1.14.22-1.7.35l-1.7.39c-.55.13-1.11.32-1.68.41a.09.09,0,1,0,0,.17,11.62,11.62,0,0,1,1.78-.46c.54-.12,1.09-.21,1.64-.29s1.1-.15,1.66-.2.83-.07,1.25-.11c-.22.4-.46.79-.68,1.2a1.74,1.74,0,0,1-.1.19,5.22,5.22,0,0,0-1.36.16c-.49.09-1,.18-1.47.29-1,.22-2,.45-2.95.72-2.06.58-4.09,1.23-6.11,1.9-.11,0,0,.2.07.17a58.74,58.74,0,0,1,6.14-1.71c1-.22,1.94-.44,2.91-.64l1.46-.31a11,11,0,0,0,1.14-.25q-1.58,2.9-2.93,5.89c-2,4.35-3.63,8.84-5.32,13.31,0,.11.13.18.17.07a120.91,120.91,0,0,1,5.66-13c.38-.78.77-1.54,1.15-2.31,0,.15.07.31.1.47.1.53.19,1,.28,1.58.18,1.06.36,2.12.52,3.18a36.78,36.78,0,0,1,.76,6.6c0,.14.21.13.18,0A31.28,31.28,0,0,1,75,388.5c-.07-1.11-.15-2.22-.28-3.33s-.26-2.13-.44-3.19c-.09-.53-.18-1.06-.28-1.59a3.09,3.09,0,0,0-.29-1.14c.55-1.12,1.1-2.24,1.66-3.35s1.07-2.08,1.61-3.12c.23-.44.48-.88.72-1.33a13,13,0,0,0,.63,1.6l.73,1.8c.55,1.32,1,2.66,1.56,4,.72,1.9,1.51,3.84,2.1,5.82C82.13,382.73,81.64,380.75,81,378.84Z" style="fill:#263238"></path><path d="M82.85,385.13c0-.16-.09-.31-.14-.46C82.76,384.82,82.8,385,82.85,385.13Z" style="fill:#263238"></path><polygon points="123.72 399.17 123.05 413.3 121.33 449.72 83.76 449.72 82.04 413.3 81.37 399.17 123.72 399.17" style="fill:#37474f"></polygon><polygon points="123.72 399.17 123.3 408.11 81.84 409.11 81.37 399.17 123.72 399.17" style="fill:#263238"></polygon><rect x="78.7" y="393.46" width="47.69" height="11.43" style="fill:#37474f"></rect><rect x="86.8" y="449.72" width="6.6" height="5.98" style="fill:#37474f"></rect><rect x="86.8" y="449.72" width="6.6" height="2.99" style="fill:#263238"></rect><rect x="111.7" y="449.72" width="6.59" height="5.98" style="fill:#37474f"></rect><rect x="111.7" y="449.72" width="6.59" height="2.99" style="fill:#263238"></rect></g><g id="freepik--Stanchion--inject-17"><path d="M257.3,290.49c-18.31,0-35.2-1-49.69-2.42-45.52-4.38-77.79-13.24-78.11-13.32l2.18-7c1.25.35,127,34.44,236.38,0l2.44,6.91C332.2,286.76,292.17,290.49,257.3,290.49Z" style="fill:#00A3EA"></path><rect x="127.56" y="262.34" width="6.61" height="187.75" style="fill:#a6a6a6"></rect><polygon points="162.85 455.69 98.89 455.69 127.57 450.09 134.16 450.09 162.85 455.69" style="fill:#a6a6a6"></polygon><circle cx="130.87" cy="257.07" r="8.65" style="fill:#a6a6a6"></circle><rect x="365.83" y="262.34" width="6.61" height="187.75" style="fill:#a6a6a6"></rect><polygon points="401.11 455.69 337.15 455.69 365.83 450.09 372.43 450.09 401.11 455.69" style="fill:#a6a6a6"></polygon><circle cx="369.13" cy="257.07" r="8.65" style="fill:#a6a6a6"></circle></g><g id="freepik--character-1--inject-17"><path d="M300.67,456.42c1.79.57,52.64-.1,54.56-1.35.74-.47,1.07-7.89,1.22-16.85,0-1.94.05-3.94.06-6l2.36-27.18-33.21.35-2.23,27.17.23,6s-19.35,9-21.31,10.56S298.89,455.85,300.67,456.42Z" style="fill: rgb(119, 68, 66);"></path><path d="M300.67,456.42c1.79.57,52.64-.1,54.56-1.35.89-.58,1.2-11.4,1.28-22.82l-33.08.34.23,6s-19.35,9-21.31,10.56S298.89,455.85,300.67,456.42Z" style="fill:#fff"></path><path d="M300.67,456.42c1.79.57,52.64-.1,54.56-1.35.74-.47,1.07-7.89,1.22-16.85l-32.79.34s-19.35,9-21.31,10.56S298.89,455.85,300.67,456.42Z" style="fill:#00A3EA"></path><path d="M341.78,456.07c7.32-.27,12.84-.6,13.46-1s1-7,1.18-15.23C352.86,444.05,345.85,451.67,341.78,456.07Z" style="fill:#263238"></path><path d="M301.38,454.38c8.52-.32,42.92-.82,51.37-.49.07,0,.07.05,0,.05-8.44.51-42.85.72-51.37.58C301.2,454.52,301.2,454.39,301.38,454.38Z" style="fill:#263238"></path><path d="M305.59,447.25a6.89,6.89,0,0,1,5.13,2,6.65,6.65,0,0,1,2,4.53s-.09,0-.1,0a7.9,7.9,0,0,0-7-6.43C305.53,447.35,305.52,447.25,305.59,447.25Z" style="fill:#263238"></path><path d="M320.37,439.45c3.41-.09,7.38,1.06,9.54,3.82.08.11-.07.23-.18.17a47.59,47.59,0,0,0-9.42-3.57A.21.21,0,0,1,320.37,439.45Z" style="fill:#263238"></path><path d="M317.75,440.51c3.41-.09,7.38,1.06,9.54,3.82.08.11-.07.23-.18.18a47,47,0,0,0-9.42-3.58A.21.21,0,0,1,317.75,440.51Z" style="fill:#263238"></path><path d="M315.13,441.57c3.41-.09,7.38,1.06,9.54,3.82.08.11-.07.23-.18.18a47,47,0,0,0-9.42-3.58A.21.21,0,0,1,315.13,441.57Z" style="fill:#263238"></path><path d="M312.51,442.64c3.41-.1,7.38,1.05,9.54,3.82.08.1-.07.22-.18.17a46.38,46.38,0,0,0-9.42-3.57A.21.21,0,0,1,312.51,442.64Z" style="fill:#263238"></path><path d="M350.47,445.82c3.83,0,3.89,5.91.06,5.95S346.63,445.86,350.47,445.82Z" style="fill:#263238"></path><path d="M316.9,435.39c1.87,2.35,4.69,3.81,7.15,5.46a.42.42,0,0,0,.61-.28s.11,0,.1-.1a17.91,17.91,0,0,0-3.22-8.69c-1.08-1.47-3.27-2.84-5-1.39S315.8,434,316.9,435.39Zm-.2-2.82c.29-3.72,3.68-.91,4.43.21a17.53,17.53,0,0,1,1.28,2.28c.8,1.63,1.36,3.34,2,5-1.15-.88-2.37-1.66-3.56-2.5C319.43,436.59,316.54,434.62,316.7,432.57Z" style="fill:#263238"></path><path d="M336.85,438.13c-.3-2.22-2.85-2.67-4.64-2.3a18,18,0,0,0-8.2,4.3.09.09,0,0,0,0,.15.42.42,0,0,0,.26.62c2.92.41,6,1.21,9,.72C335,441.33,337.13,440.23,336.85,438.13Zm-8,2.49c-1.44-.17-2.87-.41-4.32-.53,1.6-.83,3.16-1.73,4.85-2.41a19.41,19.41,0,0,1,2.47-.84c1.31-.33,5.71-.15,3.44,2.81C334,441.28,330.57,440.82,328.85,440.62Z" style="fill:#263238"></path><path d="M357,426.69H323s3.18-51.73,6.54-66.58c4.06-18,15.23-72.94,15.23-72.94h36.6s-17.17,56.16-18.74,75C361.81,371.36,357,426.69,357,426.69Z" style="fill:#263238"></path><path d="M347,456.37c1.79.57,52.64-.1,54.56-1.35.74-.48,1.07-7.89,1.22-16.85,0-1.94,0-3.94.06-6,.09-13.19-1.13-27.18-1.13-27.18l-34.83.35,2.88,27.17.23,6s-19.35,9-21.31,10.56S345.23,455.8,347,456.37Z" style="fill: rgb(119, 68, 66);"></path><path d="M347,456.37c1.79.57,52.64-.1,54.56-1.35.89-.58,1.2-11.4,1.28-22.82l-33.08.34.23,6s-19.35,9-21.31,10.56S345.23,455.8,347,456.37Z" style="fill:#fff"></path><path d="M347,456.37c1.79.57,52.64-.1,54.56-1.35.74-.48,1.07-7.89,1.22-16.85l-32.79.34s-19.35,9-21.31,10.56S345.23,455.8,347,456.37Z" style="fill:#00A3EA"></path><path d="M347.72,454.33c8.52-.33,42.92-.82,51.37-.49.07,0,.07.05,0,.05-8.44.5-42.85.72-51.37.58C347.54,454.46,347.54,454.33,347.72,454.33Z" style="fill:#263238"></path><path d="M351.93,447.2a6.85,6.85,0,0,1,5.13,2,6.65,6.65,0,0,1,2,4.53c0,.05-.09.05-.1,0a7.9,7.9,0,0,0-7-6.43C351.86,447.3,351.86,447.2,351.93,447.2Z" style="fill:#263238"></path><path d="M366.71,439.4c3.41-.09,7.38,1.06,9.54,3.82.08.11-.07.22-.18.17a47,47,0,0,0-9.42-3.57A.21.21,0,0,1,366.71,439.4Z" style="fill:#263238"></path><path d="M364.09,440.46c3.41-.09,7.38,1.06,9.54,3.82.08.11-.07.23-.18.17a47.59,47.59,0,0,0-9.42-3.57A.21.21,0,0,1,364.09,440.46Z" style="fill:#263238"></path><path d="M361.47,441.52c3.41-.09,7.38,1.06,9.54,3.82.08.11-.07.23-.18.18a47,47,0,0,0-9.42-3.58A.21.21,0,0,1,361.47,441.52Z" style="fill:#263238"></path><path d="M358.85,442.58c3.41-.09,7.38,1.06,9.54,3.82.08.11-.07.23-.18.18a47,47,0,0,0-9.42-3.58A.21.21,0,0,1,358.85,442.58Z" style="fill:#263238"></path><path d="M396.81,445.77c3.83,0,3.89,5.91.06,6S393,445.81,396.81,445.77Z" style="fill:#263238"></path><path d="M363.24,435.34c1.87,2.35,4.69,3.81,7.15,5.46a.42.42,0,0,0,.61-.29.08.08,0,0,0,.1-.1,18,18,0,0,0-3.21-8.68c-1.09-1.47-3.28-2.84-5-1.39S362.14,434,363.24,435.34Zm-.2-2.82c.29-3.72,3.68-.91,4.43.2a18.33,18.33,0,0,1,1.28,2.29c.8,1.63,1.36,3.34,2,5-1.15-.89-2.37-1.66-3.56-2.5C365.77,436.54,362.88,434.56,363,432.52Z" style="fill:#263238"></path><path d="M383.19,438.08c-.3-2.23-2.85-2.67-4.64-2.3a17.86,17.86,0,0,0-8.2,4.3.08.08,0,0,0,0,.14.41.41,0,0,0,.26.62c2.92.42,6,1.22,9,.73C381.33,441.28,383.47,440.18,383.19,438.08Zm-8,2.48c-1.44-.16-2.87-.4-4.32-.52,1.6-.83,3.16-1.73,4.85-2.41a19.41,19.41,0,0,1,2.47-.84c1.31-.33,5.71-.15,3.44,2.81C380.38,441.23,376.91,440.77,375.19,440.56Z" style="fill:#263238"></path><path d="M402.85,426.69h-33.7s-4.16-38.33-5.51-52.29c-1.43-14.85-3.7-61.24-3.7-61.24l-4.15-1.32c-5.2-3.29-10.47-20-11.07-24.67H393s4.92,13.38,4.26,25.33a29.4,29.4,0,0,1-1.52,7.32s2.85,43.62,3.65,51.45C400.9,386,402.85,426.69,402.85,426.69Z" style="fill:#263238"></path><path d="M354.66,311.18a81.55,81.55,0,0,1,11.25,4c.14.06,0,.22-.1.17-3.79-1.25-7.66-2.45-11.35-3.86C354.17,311.42,354.36,311.1,354.66,311.18Z" style="fill:#37474f"></path><path d="M353.46,291.16c0-.11.24-.13.24,0a73.39,73.39,0,0,0,.63,9.75c.18,1.51,1.75,9.81,5.13,9.21.57-.1.86-.53,1-1.19a8.45,8.45,0,0,0-.45-2.55,49.35,49.35,0,0,1-.87-5.24,36.77,36.77,0,0,1,.13-9.83c0-.11.22-.1.22,0a70.28,70.28,0,0,0,1,13.57c.43,2.16,1.84,5.41-1.09,5.74s-4.93-5.11-5.29-6.6A38.32,38.32,0,0,1,353.46,291.16Z" style="fill:#37474f"></path><path d="M359.37,310.32a11.86,11.86,0,0,1,.76,1.72,3,3,0,0,1,.32,1.42c0,.09-.17.1-.23,0a4.45,4.45,0,0,1-.79-1.38c-.26-.53-.53-1.06-.77-1.6C358.5,310.16,359.18,310,359.37,310.32Z" style="fill:#37474f"></path><path d="M360,314c1,12.63,1.79,25.27,2.41,37.93.18,3.57.18,7.14.32,10.72,0,.1-.15.09-.15,0-.24-3.16-.58-6.32-.82-9.48s-.44-6.32-.63-9.49c-.36-6.31-.79-12.63-1-18.95-.13-3.58-.28-7.15-.4-10.72C359.72,313.78,360,313.8,360,314Z" style="fill:#37474f"></path><path d="M374.31,289.87a52,52,0,0,0,1.34,5.88c.48,1.71,1,3.45,2.59,4.46A19.3,19.3,0,0,0,389,302.9a.07.07,0,0,1,0,.14,17.94,17.94,0,0,1-5.94,0,13.91,13.91,0,0,1-5.55-2,7.25,7.25,0,0,1-2.61-4.63,30.09,30.09,0,0,1-.73-6.55C374.13,289.79,374.29,289.76,374.31,289.87Z" style="fill:#37474f"></path><path d="M350,244.3a1.66,1.66,0,0,0,1.31-.07c.12-.07.22-.17.34-.24a1,1,0,0,1,.62-.12,4.33,4.33,0,0,0,.72,0,1.91,1.91,0,0,0,1.7-1.22,2.29,2.29,0,0,0,2.91-1.53,1.45,1.45,0,0,1,.18-.59,1.76,1.76,0,0,1,.56-.33,3.13,3.13,0,0,0,.42-.29.91.91,0,0,0,.21-1.2,1.53,1.53,0,0,0,.95-1.37,2.62,2.62,0,0,0-.73-2,1.79,1.79,0,0,0-.17-2.51,1.61,1.61,0,0,0-.72-2.29,2.33,2.33,0,0,0-.81-2.05.88.88,0,0,1-.27-.36,1.8,1.8,0,0,0-.36-1.48,1.31,1.31,0,0,0-1.52-.37,2.58,2.58,0,0,0-.91-.91,1.79,1.79,0,0,0-1.79-.12,2.56,2.56,0,0,0-3.81-.33,1.84,1.84,0,0,0-1.88-.77,3.58,3.58,0,0,0-2.08,1.44,1.29,1.29,0,0,0-1.66-.2,1.43,1.43,0,0,0-.59,1.23,2,2,0,0,0-1.27.84,1.2,1.2,0,0,0,0,1.29,1.76,1.76,0,0,0-.63,2.9,2.19,2.19,0,0,0-1.72,1.45,2.15,2.15,0,0,0,.68,2.28,1.89,1.89,0,0,0-.88,1.86,2.77,2.77,0,0,0,1.5,2,1.87,1.87,0,0,0,.17,2.07,2.42,2.42,0,0,0,1.74.86,1.78,1.78,0,0,1-1.92-.49,2,2,0,0,1,0-2.45s0,0,0,0a1.94,1.94,0,0,0-.09,2.57,2,2,0,0,0,2.43.43,2.2,2.2,0,0,0,3.23,2.33C346.86,246.12,349.39,246.27,350,244.3Zm7.13-16.47s0,0,0-.06a2,2,0,0,0-.17-.46,1.83,1.83,0,0,0-.76-.75,2.22,2.22,0,0,0-.49-.18l-.29,0,0-.07a1.42,1.42,0,0,1,1.51.64A1.73,1.73,0,0,1,357.16,227.83Zm-14.34-1.31h0a1.18,1.18,0,0,1,2-.91l0,0a1.36,1.36,0,0,0-1.55.18A1.56,1.56,0,0,0,342.82,226.52ZM346.57,245a2.46,2.46,0,0,0,3.36-.74h0C349.2,245.89,347.73,245.84,346.57,245Z" style="fill:#263238"></path><path d="M377.78,235.64a1.66,1.66,0,0,0,1.31-.06c.12-.08.22-.18.34-.25a1,1,0,0,1,.62-.11,4.33,4.33,0,0,0,.72,0,1.92,1.92,0,0,0,1.7-1.21,2.38,2.38,0,0,0,2.75-1.13,3.33,3.33,0,0,0,.16-.4,1.5,1.5,0,0,1,.18-.6,1.84,1.84,0,0,1,.56-.33,2,2,0,0,0,.42-.29.91.91,0,0,0,.21-1.2,1.5,1.5,0,0,0,.95-1.36,2.63,2.63,0,0,0-.73-2.05,1.79,1.79,0,0,0-.17-2.51,1.6,1.6,0,0,0-.72-2.28,2.35,2.35,0,0,0-.81-2.06.93.93,0,0,1-.28-.36,1.77,1.77,0,0,0-.35-1.48,1.35,1.35,0,0,0-1.52-.37,2.76,2.76,0,0,0-.91-.91,1.77,1.77,0,0,0-1.79-.11,2.55,2.55,0,0,0-3.81-.33,1.85,1.85,0,0,0-1.88-.78,3.55,3.55,0,0,0-2.08,1.45,1.28,1.28,0,0,0-1.66-.2,1.43,1.43,0,0,0-.59,1.22,2,2,0,0,0-1.27.85,1.19,1.19,0,0,0,0,1.28,1.77,1.77,0,0,0-.63,2.91,2.1,2.1,0,0,0-1,3.72,1.88,1.88,0,0,0-.88,1.87,2.73,2.73,0,0,0,1.5,2,1.88,1.88,0,0,0,.17,2.08,2.46,2.46,0,0,0,1.73.86,1.79,1.79,0,0,1-1.91-.5,2,2,0,0,1,0-2.45h0a1.93,1.93,0,0,0-.09,2.56,2,2,0,0,0,2.43.43,2.2,2.2,0,0,0,3.23,2.34C374.61,237.47,377.14,237.61,377.78,235.64Zm7.13-16.47s0,0,0-.06a1.74,1.74,0,0,0-.17-.45,1.85,1.85,0,0,0-.76-.76,1.78,1.78,0,0,0-.49-.17l-.29,0,0-.06a1.4,1.4,0,0,1,1.51.63A1.76,1.76,0,0,1,384.91,219.17Zm-14.34-1.3h0a1.18,1.18,0,0,1,2-.92l0,0a1.37,1.37,0,0,0-1.55.19A1.46,1.46,0,0,0,370.57,217.87Zm3.75,18.49a2.48,2.48,0,0,0,3.36-.74h0C377,237.24,375.48,237.19,374.32,236.36Z" style="fill:#263238"></path><path d="M365.9,243.86c-4.3,5.68-21.21,25.87-30.85,27.95-6.48,1.4-27.69-8.71-32.38-12.46-1.92-1.53,8.17-17.42,10.73-16.85,2.79.61,18.12,10.25,20.07,10.08s17.18-9.23,26.44-13.32C365.47,236.81,368.33,240.66,365.9,243.86Z" style="fill: rgb(119, 68, 66);"></path><path d="M307.77,262.53c-2.16-1.18-15.38-7.53-17.61-9.85s-8.15-9.47-6.55-11.36,3.51.06,3.51.06-2.27-3.7-.24-5.16c1.62-1.17,4.45,1.44,4.45,1.44s-2.28-4.19-.07-5.38c2-1.09,4.34,2.49,4.34,2.49s-1.55-3.7.58-4.37c2.57-.81,5.26,5.59,7.91,8,.6.54,13,10.08,13,10.08Z" style="fill: rgb(119, 68, 66);"></path><path d="M295.69,234.58c2.5,4.59,3.66,6.42,7.79,9.29.08.06,0,.19-.08.14-4.29-2.45-5.83-4.52-7.94-9.35C295.35,234.43,295.57,234.36,295.69,234.58Z" style="fill:#263238"></path><path d="M291.38,237.65c2.49,4.71,4.34,6.47,8.44,9.8.06,0,0,.15-.08.1-4.29-2.93-6.66-4.82-8.53-9.85C291.12,237.47,291.27,237.44,291.38,237.65Z" style="fill:#263238"></path><path d="M287.32,241.55c2.74,4.38,4.63,6.53,9,9.25a.09.09,0,0,1-.09.16,17.12,17.12,0,0,1-9.06-9.31C287.07,241.35,287.15,241.27,287.32,241.55Z" style="fill:#263238"></path><path d="M322.31,247.49s-4.36-4.72-6.32-6.82-6.67-8.83-9.14-8.6c-2.76.25-.58,7.4,2.89,11.18,0,0-4.3,7.26-1.14,11.05S322.31,247.49,322.31,247.49Z" style="fill: rgb(119, 68, 66);"></path><path d="M310,243.77c-1.77,2.76-2.95,6.93-1.55,9.89a.07.07,0,0,1-.13.07c-1.93-3-.61-7.8,1.12-10.18C309.72,243.1,310.41,243.05,310,243.77Z" style="fill:#263238"></path><path d="M344.15,268.94l-5.66-20.24s12-6.72,20.49-9.54,11.49-.86,4,9.94S344.15,268.94,344.15,268.94Z" style="fill:#00A3EA"></path><path d="M342.67,247.66c.59,1.37,4.3,15.9,4.43,17.4a.07.07,0,0,1-.13,0c-.6-1.39-4.25-15.93-4.38-17.41C342.58,247.63,342.65,247.62,342.67,247.66Z" style="fill:#263238"></path><path d="M340.29,255.15l3.86,13.79s11.39-9,18.86-19.84c4.83-7,5.29-10.28,2.68-11Z" style="opacity:0.1"></path><path d="M395.51,296.87c0,.06-52.68-2.88-53.05-3.23-.18-.18,8.49-40.66,15.33-52,1.74-2.89,9.52-7.12,15.12-1.59C384.71,251.73,395.73,296.58,395.51,296.87Z" style="fill:#00A3EA"></path><path d="M376.88,246c13.24,14.06,27.39,39.3,24.08,45.1-3.68,6.45-23.32-10.29-22.71-11.24s-6.31-17.5-9-31.41C366.65,234.94,373.6,242.49,376.88,246Z" style="fill: rgb(119, 68, 66);"></path><path d="M400.75,291.58c-4.29,3.16-16.91,4.43-37.83,1.62-2.89-.39,2.09-20.66,5.2-20.4,3.93.32,18.07,2.42,19.16,2.71C396.46,278,403.66,289.44,400.75,291.58Z" style="fill: rgb(119, 68, 66);"></path><path d="M373,273.37a81.93,81.93,0,0,1-8.21-2.92,25.67,25.67,0,0,0-27.1,7.32c-3.69,4-2.47,8.39,2.11,4.88,3.23-2.48,5.25-4.48,6.53-5,0,0-1.5,6,.85,8.78a66.62,66.62,0,0,0,6.66,6.71,14.42,14.42,0,0,0,1.37-1.13s4.67,2.77,9.5,1.11Z" style="fill: rgb(119, 68, 66);"></path><path d="M360,269.43c-2.5.92-7.78,2.95-11.51,6.11-4.15,3.5-11.19,11.38-8.57,14.42,1.92,2.22,4.88-.55,4.88-.55s-2.23,3.87,0,5.5c2,1.49,4.14-.79,4.14-.79s-.95,2.58,1.24,3.64c2.63,1.28,4.18-4.34,8-5.34C358.91,292.19,360,269.43,360,269.43Z" style="fill: rgb(119, 68, 66);"></path><path d="M352.9,279.3a21.72,21.72,0,0,0-8.16,10c0,.11,0,.19.08.1a53.54,53.54,0,0,1,8.11-10.06S352.92,279.29,352.9,279.3Z" style="fill:#263238"></path><path d="M356.32,283.59a24.24,24.24,0,0,0-7.54,10.47c0,.11,0,.19.08.1a56.65,56.65,0,0,1,7.5-10.53S356.34,283.57,356.32,283.59Z" style="fill:#263238"></path><path d="M394.94,280.27a19.46,19.46,0,0,0-6.41-4.36c-2.95-1.15-9.77-2-11.89-2-.05,0-.07.06,0,.07,1.86.45,8.34,1.32,11.5,2.51a26.47,26.47,0,0,1,6.75,3.85S395,280.3,394.94,280.27Z" style="fill:#263238"></path><path d="M395.73,267.31l-22.27,1.6s-4.25-13.28-5.33-22.31,1.48-11.59,10.7-2S395.73,267.31,395.73,267.31Z" style="fill:#00A3EA"></path><path d="M373.38,264.9c1.48-.33,16.65-1.38,18.17-1.25a.07.07,0,0,1,0,.14c-1.5.35-16.68,1.34-18.18,1.2C373.33,265,373.33,264.91,373.38,264.9Z" style="fill:#263238"></path><path d="M369.44,256.56c.23.61.48,1.21.74,1.81.09.2.17.4.25.6l-.18-.75c-.36-1.53-.64-3.08-.95-4.62a0,0,0,0,1,.07,0c.79,2.72,1.55,5.43,2.29,8.16.36,1.32.72,2.65,1.07,4,.19.7.37,1.4.54,2.09.07.26.08.8.36.91a20.17,20.17,0,0,0,2.45-.07.06.06,0,0,1,0,.12c-.38,0-2.07.23-2.45.24a.53.53,0,0,1-.42-.1,1.32,1.32,0,0,1-.3-.63l-.33-1.14c-.44-1.47-.84-3-1.21-4.45l-.72-2.82a13.69,13.69,0,0,1-.65-1.47c-.22-.61-.42-1.22-.6-1.84C369.4,256.55,369.43,256.54,369.44,256.56Z" style="fill:#263238"></path><path d="M367,235.8c3.49.57,3.1,4.49,1.73,7.6s-3.6,5.33-5.93,5-1.73-3.88-1.73-3.88-1.84,2.65-3.14,2S361.52,234.91,367,235.8Z" style="fill:#fff"></path><path d="M369.22,238.47c-.27.81-4.74,5.84-8.52,5.31-1.24-.18-.58-6.95-.58-6.95l-.06-.51-.92-7.15,10-5.1S369.33,238.12,369.22,238.47Z" style="fill: rgb(119, 68, 66);"></path><path d="M369.23,238.15a13.06,13.06,0,0,1-9.23-2.22l-.86-6.76,10-5.1S369.3,236,369.23,238.15Z" style="fill:#263238"></path><path d="M373.54,212.5c8.83,12.67,2.24,19.38-.5,21.29-2.48,1.72-11.15,7.28-21.24-4.41s-7-19.8-1.52-24S364.71,199.83,373.54,212.5Z" style="fill: rgb(119, 68, 66);"></path><path d="M370.42,212.46c-.33.15-.67.23-1,.35a1.68,1.68,0,0,1-1.1.15.54.54,0,0,1-.34-.57,1.36,1.36,0,0,1,1-1,2,2,0,0,1,1.44,0A.58.58,0,0,1,370.42,212.46Z" style="fill:#263238"></path><path d="M361.67,218.27c.29-.22.52-.48.78-.72a1.79,1.79,0,0,0,.66-.9.54.54,0,0,0-.35-.57,1.36,1.36,0,0,0-1.31.41,2.05,2.05,0,0,0-.72,1.26A.59.59,0,0,0,361.67,218.27Z" style="fill:#263238"></path><path d="M363.92,219.22c-1.5.79.19,3.73,1.58,3S365.17,218.56,363.92,219.22Z" style="fill:#263238"></path><path d="M363.43,219.71c-.16.31-.24.75-.53,1a1.29,1.29,0,0,1-1.2-.07s-.05,0,0,.06c.32.57.87,1,1.52.76a1.26,1.26,0,0,0,.52-1.62C363.68,219.68,363.49,219.58,363.43,219.71Z" style="fill:#263238"></path><path d="M370.3,215.11c1.41-.94,3.2,1.94,1.89,2.82S369.12,215.9,370.3,215.11Z" style="fill:#263238"></path><path d="M371,214.93c.33,0,.72.15,1,0s.37-.63.38-1.06c0,0,0,0,.07,0,.35.54.53,1.23.06,1.66s-1.07.14-1.54-.32C370.91,215.13,370.89,214.93,371,214.93Z" style="fill:#263238"></path><path d="M369,227a1.65,1.65,0,0,0,1.07.14,2.78,2.78,0,0,0,.88-.76s.07,0,.06,0a1.41,1.41,0,0,1-.92,1.12,1.12,1.12,0,0,1-1.16-.45S369,227,369,227Z" style="fill:#263238"></path><path d="M370.88,221.46s1,1.24,1.37,1.87c0,.06-.1.18-.31.32,0,0,0,0,0,0a3.53,3.53,0,0,1-3.61.61.07.07,0,0,1,0-.14,5.41,5.41,0,0,0,3.24-.85c-.06-.2-1.78-2.09-1.67-2.14.47-.18,1.33-.43,1.65-.53-.63-.82-2.51-3.06-3.64-4.55-.07-.1.06-.22.14-.14a49.88,49.88,0,0,1,4.47,4.85C372.64,220.92,371.2,221.41,370.88,221.46Z" style="fill:#263238"></path><path d="M371.6,223.19a4.33,4.33,0,0,1-.57,2.11,1.92,1.92,0,0,1-.89.77c-.82.34-1.31-.27-1.59-.9a4.5,4.5,0,0,1-.31-1A5.61,5.61,0,0,0,371.6,223.19Z" style="fill:#263238"></path><path d="M371,225.3a1.92,1.92,0,0,1-.89.77c-.82.34-1.31-.27-1.59-.9A2,2,0,0,1,371,225.3Z" style="fill:#ff99ba"></path><path d="M354.15,232a6.52,6.52,0,0,0,.23-6.43,16.57,16.57,0,0,0,2.86-8.35c.09.34.7,2.76,1,4a17.13,17.13,0,0,0,6-14.92,18.09,18.09,0,0,1,7.11,3.27s-3.24-5.35-8.12-7.31a9.75,9.75,0,0,0-9.93,1.12,13.56,13.56,0,0,0-9.4,10.72C342.15,223.5,354.15,232,354.15,232Z" style="fill:#263238"></path><path d="M363.76,215.88a17.58,17.58,0,0,1-3.33,4.24s0,0,0,0a15.11,15.11,0,0,0,3.83-7.58,14.93,14.93,0,0,0,.2-3.72,10.58,10.58,0,0,0-.93-4c0-.09.1-.16.14-.07a12.4,12.4,0,0,1,1.45,3.82,11,11,0,0,1-.1,4,12.21,12.21,0,0,1-1.25,3.3Z" style="fill:#263238"></path><path d="M355.66,227.89s-5.33-2.5-6.62-.36,4.38,6.92,7.08,6.47a2.61,2.61,0,0,0,2.33-3Z" style="fill: rgb(119, 68, 66);"></path><path d="M350.7,228.86a0,0,0,1,0,0,.06c1.92-.26,3.58.71,5,1.88a1.45,1.45,0,0,0-2.07.74c0,.05.05.09.09.06a1.6,1.6,0,0,1,1.81-.4A8,8,0,0,1,357,232c.15.1.36-.12.22-.25l0,0C356.1,229.72,353,227.83,350.7,228.86Z" style="fill:#263238"></path></g><g id="freepik--speech-bubble--inject-17"><path d="M303.34,194.08a18.48,18.48,0,0,0,30.88,11.69l9.25,1.36-4.63-8a18.48,18.48,0,1,0-35.5-5Z" style="fill:#fff"></path><path d="M308.87,178.82a18.62,18.62,0,0,1,29.16,4,18.66,18.66,0,0,1,1.14,16.47l0-.32,4.6,8,.34.59-.67-.1L334.18,206l.22-.07a18.63,18.63,0,0,1-9.14,4.52,17,17,0,0,1-2.56.27,20,20,0,0,1-2.57-.05,18.88,18.88,0,0,1-5-1.19A18,18,0,0,1,310.7,207a20.48,20.48,0,0,1-1.95-1.65,21.9,21.9,0,0,1-1.68-1.93,18.59,18.59,0,0,1,1.8-24.63Zm-1.74,24.59a21.53,21.53,0,0,0,1.68,1.9,18.92,18.92,0,0,0,1.95,1.63,17.35,17.35,0,0,0,4.46,2.41,18.11,18.11,0,0,0,4.94,1.08,17.66,17.66,0,0,0,2.52,0,16.09,16.09,0,0,0,2.51-.31,18.15,18.15,0,0,0,8.85-4.56l.09-.08.13,0,9.25,1.29-.33.49-4.65-8-.09-.15.07-.16a18.51,18.51,0,0,0,1.3-8.06,18.33,18.33,0,0,0-2.35-7.82,19.08,19.08,0,0,0-5.53-6,18.15,18.15,0,0,0-7.63-3,18.46,18.46,0,0,0-8.22.61A18.84,18.84,0,0,0,309,178.9a18.23,18.23,0,0,0-1.82,24.51Z" style="fill:#263238"></path><path d="M313.89,195.64a24.28,24.28,0,0,0,7.76,6.74,24.16,24.16,0,0,0,7.76-6.74c2.74-3.62,2.6-9.28-1.31-10.5-4.32-1.36-6.45,5.15-6.45,5.15s-2.15-6.55-6.45-5.15C311.3,186.4,311.16,192,313.89,195.64Z" style="fill:#00A3EA"></path></g></svg>