<svg xmlns="http://www.w3.org/2000/svg" viewBox="0 0 500 500"><g id="freepik--background-complete--inject-9"><rect x="130.58" y="58.13" width="46.4" height="46.4" rx="10.16" style="fill:#e0e0e0"></rect><path d="M143,92.58l1.69-6.3a11.72,11.72,0,1,1,4.65,4.6Zm6.65-4.06.4.24a9.47,9.47,0,1,0-3.24-3.21l.25.4-1,3.52Z" style="fill:#fff"></path><path d="M159,82.34a2,2,0,0,0-1.67-.38c-.43.18-.71.86-1,1.2a.4.4,0,0,1-.53.12,7.5,7.5,0,0,1-3.77-3.23.46.46,0,0,1,.05-.63A1.74,1.74,0,0,0,152.5,77a3.07,3.07,0,0,0-1-1.46,1.32,1.32,0,0,0-1.44.21,2.93,2.93,0,0,0-1,2.33,3.06,3.06,0,0,0,.09.74,6.35,6.35,0,0,0,.71,1.63,12.1,12.1,0,0,0,3.94,4.1,9.9,9.9,0,0,0,2,.95,4.33,4.33,0,0,0,2.33.36,2.82,2.82,0,0,0,2.11-1.56,1.39,1.39,0,0,0,.09-.8C160.22,82.93,159.48,82.61,159,82.34Z" style="fill:#fff;fill-rule:evenodd"></path><path d="M402.14,386.33a28.85,28.85,0,0,1,7.18-3.12l1.48-7.11,12-.21,1.73,7.05a29.55,29.55,0,0,1,7.28,2.86l6.07-4,8.63,8.34-3.76,6.2a28.85,28.85,0,0,1,3.12,7.18L453,405l.21,12-7.05,1.73a29.55,29.55,0,0,1-2.86,7.28l4,6.07-8.34,8.63-6.2-3.76a29.61,29.61,0,0,1-7.18,3.12l-1.48,7.11-12,.21-1.73-7.05A29.58,29.58,0,0,1,403,437.5l-6.07,4-8.63-8.34,3.76-6.2a28.85,28.85,0,0,1-3.12-7.18l-7.11-1.48-.21-12,7-1.73a29,29,0,0,1,2.87-7.28l-4-6.07,8.34-8.64,6.2,3.77Zm6.4,16a12.88,12.88,0,1,0,18.21-.32A12.88,12.88,0,0,0,408.54,402.32Z" style="fill:#ebebeb"></path><path d="M408.54,402.32a9.69,9.69,0,0,1,2.4-2.11,12.78,12.78,0,0,1,8.4-2,13,13,0,0,1,5.71,2,13.29,13.29,0,0,1,4.62,5.21,12.43,12.43,0,0,1,1.17,3.61,12.56,12.56,0,0,1,.07,4A13.14,13.14,0,0,1,420,424.3a12.61,12.61,0,0,1-4,.07,12.48,12.48,0,0,1-3.65-1.05,13.07,13.07,0,0,1-7.59-10.07,12.78,12.78,0,0,1,1.69-8.46,9.47,9.47,0,0,1,2-2.47,31,31,0,0,0-1.77,2.61,12.79,12.79,0,0,0-1.42,8.24,12.59,12.59,0,0,0,7.35,9.53,12.15,12.15,0,0,0,3.47,1,11.83,11.83,0,0,0,3.75-.08,12.46,12.46,0,0,0,10.27-10.65,12.64,12.64,0,0,0-1.13-7.18,12.59,12.59,0,0,0-9.78-7,12.81,12.81,0,0,0-8.19,1.72A29.43,29.43,0,0,0,408.54,402.32Z" style="fill:#ebebeb"></path><path d="M402.14,386.33l-.4-.22-1.19-.68-4.67-2.76.14,0-8.29,8.68,0-.23c1.21,1.83,2.55,3.87,4,6l.07.11-.07.11a29.82,29.82,0,0,0-2.81,7.24l0,.14-.14,0-7,1.74.21-.26c.07,3.78.15,7.8.23,12l-.23-.28,7.11,1.46.18,0,0,.18a29.15,29.15,0,0,0,3.1,7.09l.1.17-.1.17c-1.16,1.92-2.45,4-3.75,6.2l-.05-.41,8.64,8.33-.43,0,6.07-4,.18-.12.18.11a29,29,0,0,0,7.2,2.82l.21.05.05.21c.54,2.21,1.13,4.62,1.73,7.05l-.36-.27,12-.22-.36.29c.47-2.24,1-4.66,1.48-7.1l.05-.22.21-.06a28.88,28.88,0,0,0,7.08-3.08h0l.19-.12.19.12,6.2,3.76-.45.06,8.34-8.64,0,.46-4-6.07-.12-.19.11-.19a29.08,29.08,0,0,0,2.83-7.19l.06-.21.21,0,7-1.72-.26.34c-.07-4.09-.14-8.1-.2-12l.27.33-7.1-1.49-.2,0-.05-.19a29,29,0,0,0-3.08-7.11l-.1-.16.1-.17,3.77-6.19.05.38L437.68,382l.35,0c-2.13,1.4-4.14,2.7-6.07,4l-.14.09-.14-.08a29.65,29.65,0,0,0-7.21-2.86l-.14,0,0-.14c-.62-2.57-1.17-4.88-1.7-7.06l.21.17-12,.16.16-.13-1.53,7.09v.07l-.07,0a30.79,30.79,0,0,0-5.49,2.11l-1.29.68a3,3,0,0,1-.43.22,3.45,3.45,0,0,1,.4-.28c.27-.17.69-.42,1.27-.73a28.26,28.26,0,0,1,5.48-2.23l-.09.09,1.43-7.11,0-.13h.13l12-.27H423l0,.17c.54,2.18,1.12,4.48,1.75,7l-.17-.18a29.94,29.94,0,0,1,7.35,2.87h-.27l6.05-4,.19-.12.16.15,8.66,8.33.17.17-.12.21c-1.22,2-2.47,4.07-3.75,6.2v-.33a29.74,29.74,0,0,1,3.16,7.26l-.25-.24,7.11,1.47.26.06V405c.07,3.9.14,7.91.22,12v.28l-.28.07-7,1.73.26-.26a30,30,0,0,1-2.9,7.38v-.38l4,6.07.16.24-.21.21L439.18,441l-.21.21-.25-.15-6.2-3.76h.38a30,30,0,0,1-7.27,3.16l.26-.28c-.51,2.44-1,4.86-1.48,7.1l-.06.29h-.29l-12,.21h-.29l-.07-.28c-.6-2.43-1.18-4.84-1.72-7.05l.26.27a30.22,30.22,0,0,1-7.37-2.91h.36l-6.07,4-.23.15-.2-.19-8.62-8.35-.19-.18.13-.23c1.32-2.16,2.61-4.27,3.77-6.19v.32a30,30,0,0,1-3.14-7.26l.24.22-7.11-1.49-.22-.05v-.23c-.06-4.21-.12-8.23-.18-12v-.21l.2-.05,7-1.7-.18.17a29.53,29.53,0,0,1,2.92-7.33v.23l-3.95-6.09-.08-.12.1-.11,8.39-8.59.07-.07.08,0,4.57,2.85,1.17.74A2.58,2.58,0,0,1,402.14,386.33Z" style="fill:#ebebeb"></path><path d="M55.81,85.54A29.61,29.61,0,0,1,63,82.42l1.48-7.1,12-.21,1.73,7A29.25,29.25,0,0,1,85.48,85l6.07-4,8.64,8.34-3.76,6.2a29.78,29.78,0,0,1,3.12,7.18l7.1,1.48.21,12-7,1.72A29.47,29.47,0,0,1,97,125.26l4,6.06L92.59,140l-6.21-3.76a29.54,29.54,0,0,1-7.17,3.12l-1.48,7.1-12,.21-1.72-7a29.5,29.5,0,0,1-7.29-2.87l-6.06,4L42,132.36l3.76-6.2A29.61,29.61,0,0,1,42.65,119l-7.1-1.48-.21-12,7-1.73a29.28,29.28,0,0,1,2.87-7.28l-4-6.07,8.34-8.64,6.2,3.76Zm6.4,16a12.88,12.88,0,1,0,18.21-.32A12.88,12.88,0,0,0,62.21,101.53Z" style="fill:#ebebeb"></path><path d="M62.21,101.53a9.81,9.81,0,0,1,2.4-2.1,12.83,12.83,0,0,1,8.4-2,13.08,13.08,0,0,1,10.33,7.23,12.29,12.29,0,0,1,1.17,3.62,12.5,12.5,0,0,1,.08,4,13.13,13.13,0,0,1-10.88,11.26,12.26,12.26,0,0,1-4,.07,12.44,12.44,0,0,1-3.66-1,13.32,13.32,0,0,1-5.36-4.43,13.14,13.14,0,0,1-2.23-5.64A12.91,12.91,0,0,1,60.19,104a10,10,0,0,1,2-2.47c.07.06-.77.85-1.77,2.62A12.83,12.83,0,0,0,59,112.39a12.59,12.59,0,0,0,7.35,9.53,12.67,12.67,0,0,0,7.22.88,12.46,12.46,0,0,0,10.28-10.64,11.84,11.84,0,0,0-.05-3.76A12,12,0,0,0,82.73,105a12.72,12.72,0,0,0-18-5.3C63,100.73,62.27,101.6,62.21,101.53Z" style="fill:#ebebeb"></path><path d="M55.81,85.54l-.4-.21-1.19-.69-4.67-2.76.15,0-8.29,8.69,0-.23,4,6.05.07.11-.06.11a29.43,29.43,0,0,0-2.82,7.24l0,.14-.14,0-7,1.75.2-.26c.07,3.78.15,7.79.24,12l-.23-.28,7.1,1.47.18,0,0,.17A29,29,0,0,0,46,126l.1.17-.1.16-3.75,6.21,0-.41c2.71,2.62,5.64,5.44,8.65,8.33l-.43,0,6.06-4,.18-.12.18.1a29.53,29.53,0,0,0,7.2,2.83l.21,0,0,.21c.55,2.21,1.14,4.62,1.74,7.05l-.36-.28,12-.21-.35.29c.46-2.25,1-4.67,1.48-7.11l0-.21.22-.07a29,29,0,0,0,7.08-3.07h0l.2-.11.19.11,6.2,3.77-.46,0,8.34-8.63,0,.45-4-6.06-.12-.19.1-.19a29.11,29.11,0,0,0,2.84-7.19l0-.21.21-.05,7-1.73-.27.35q-.11-6.15-.2-12l.27.33-7.1-1.49-.2,0,0-.2a29.12,29.12,0,0,0-3.08-7.1l-.1-.17.1-.16c1.3-2.12,2.55-4.18,3.78-6.2l0,.38-8.62-8.35.36,0-6.08,4-.13.09-.14-.08a29.31,29.31,0,0,0-7.22-2.86l-.14,0,0-.14-1.71-7,.22.17-12,.15.16-.13c-.61,2.84-1.11,5.16-1.52,7.1l0,.07-.07,0a30.63,30.63,0,0,0-5.48,2.11l-1.3.67a3,3,0,0,1-.43.22,4.69,4.69,0,0,1,.4-.27c.28-.17.69-.42,1.27-.73A28.54,28.54,0,0,1,63,82.31l-.08.09c.39-1.94.86-4.27,1.43-7.12l0-.12h.14l12-.26h.17l0,.17c.54,2.17,1.11,4.48,1.75,7l-.18-.18a29.4,29.4,0,0,1,7.35,2.87h-.27l6.06-4,.18-.13.17.16,8.65,8.32.18.17-.13.21L96.7,95.75v-.33a30.08,30.08,0,0,1,3.17,7.25l-.26-.23,7.11,1.47.27,0v.28q.11,5.85.22,12v.28l-.27.07-7,1.73.26-.26a29.72,29.72,0,0,1-2.89,7.37l0-.37,4,6.06.16.25-.2.21-8.34,8.64-.2.21-.25-.15-6.21-3.76h.38a29.71,29.71,0,0,1-7.26,3.15l.26-.28c-.51,2.44-1,4.86-1.48,7.11l-.06.29h-.3l-12,.21h-.29l-.07-.28c-.59-2.43-1.18-4.84-1.72-7.05l.26.26a29.81,29.81,0,0,1-7.37-2.9l.37,0-6.07,4-.24.16-.19-.2-8.63-8.34-.19-.19.14-.22L45.5,126v.33a29.62,29.62,0,0,1-3.14-7.26l.23.22-7.1-1.5-.23,0v-.24c-.07-4.21-.13-8.22-.19-12v-.21l.2-.05,7.06-1.71-.18.18a29.91,29.91,0,0,1,2.91-7.33v.22c-1.43-2.19-2.76-4.24-4-6.08L41,90.39l.11-.1,8.39-8.59.06-.07.08.05,4.57,2.84,1.18.75A3.51,3.51,0,0,1,55.81,85.54Z" style="fill:#ebebeb"></path><path d="M440.88,347.91a15.43,15.43,0,0,1,3.81-1.65l.78-3.77,6.36-.11.92,3.73a15.67,15.67,0,0,1,3.85,1.52l3.22-2.1,4.57,4.41-2,3.29a15.61,15.61,0,0,1,1.66,3.8l3.76.79.11,6.36-3.73.91a15.9,15.9,0,0,1-1.52,3.86l2.11,3.22-4.42,4.57-3.29-2a15.2,15.2,0,0,1-3.8,1.65l-.79,3.77-6.36.11-.91-3.74a15.87,15.87,0,0,1-3.86-1.51l-3.21,2.1-4.58-4.42,2-3.28a15.48,15.48,0,0,1-1.65-3.81l-3.76-.78-.12-6.36,3.74-.91a15.21,15.21,0,0,1,1.52-3.86l-2.11-3.22,4.42-4.57,3.28,2Zm3.39,8.47a6.82,6.82,0,1,0,9.65-.17A6.83,6.83,0,0,0,444.27,356.38Z" style="fill:#ebebeb"></path><path d="M84.67,41.16a16,16,0,0,1,3.8-1.65l.79-3.76,6.35-.11.92,3.73a15.51,15.51,0,0,1,3.86,1.52l3.21-2.11,4.58,4.42-2,3.29a16,16,0,0,1,1.65,3.8l3.76.78.12,6.36-3.74.92a15.51,15.51,0,0,1-1.52,3.86l2.11,3.21L104.15,70l-3.28-2a15.85,15.85,0,0,1-3.81,1.66l-.78,3.76-6.36.11L89,69.8a15.67,15.67,0,0,1-3.85-1.52l-3.22,2.11L77.35,66l2-3.29a15.61,15.61,0,0,1-1.66-3.8l-3.76-.78-.11-6.36,3.73-.92A15.9,15.9,0,0,1,79.07,47L77,43.75l4.42-4.58,3.29,2Zm3.39,8.48a6.82,6.82,0,1,0,9.65-.17A6.82,6.82,0,0,0,88.06,49.64Z" style="fill:#ebebeb"></path><path d="M444.27,356.38a5.25,5.25,0,0,1,1.27-1.11,6.86,6.86,0,0,1,7.48,0,6.89,6.89,0,0,1,2.45,2.76,6.39,6.39,0,0,1,.62,1.91,6.71,6.71,0,0,1,0,2.1,7,7,0,0,1-5.76,6,6.45,6.45,0,0,1-2.1,0,6.57,6.57,0,0,1-1.94-.55,7,7,0,0,1-2.84-2.35,6.9,6.9,0,0,1-.29-7.47,5.3,5.3,0,0,1,1.07-1.31s-.41.45-.93,1.39a6.76,6.76,0,0,0-.76,4.36,6.66,6.66,0,0,0,3.9,5.05,6.19,6.19,0,0,0,1.84.51,6.28,6.28,0,0,0,2,0,6.63,6.63,0,0,0,5.45-5.64,6.31,6.31,0,0,0,0-2,6.23,6.23,0,0,0-.57-1.82,6.7,6.7,0,0,0-2.31-2.64,6.57,6.57,0,0,0-2.88-1.07,6.73,6.73,0,0,0-4.33.91C444.71,356,444.31,356.42,444.27,356.38Z" style="fill:#ebebeb"></path><path d="M440.88,347.91l-.21-.11-.63-.37L437.57,346h.07l-4.39,4.6v-.12l2.12,3.2,0,.06,0,.06a15.52,15.52,0,0,0-1.5,3.84l0,.07-.07,0-3.73.93.1-.14c0,2,.09,4.13.13,6.36l-.12-.15,3.76.78.1,0,0,.09a15,15,0,0,0,1.64,3.76l.05.09-.05.09c-.62,1-1.3,2.14-2,3.28l0-.21,4.58,4.41-.22,0,3.21-2.11.09-.06.1.05a15.37,15.37,0,0,0,3.81,1.5l.12,0,0,.11.92,3.73-.19-.14,6.36-.12-.19.16.79-3.77,0-.11.11,0a15.25,15.25,0,0,0,3.76-1.63h0l.1-.06.1.06,3.29,2-.24,0q2.24-2.33,4.42-4.58l0,.24-2.1-3.21-.07-.1.06-.1a15.11,15.11,0,0,0,1.5-3.81l0-.11.11,0,3.74-.91-.15.18c0-2.17-.07-4.29-.1-6.36l.14.17-3.76-.78-.1,0,0-.1a15.45,15.45,0,0,0-1.63-3.76l-.06-.09.06-.09,2-3.28,0,.2-4.57-4.43.19,0-3.22,2.1-.07.05-.07,0a15.29,15.29,0,0,0-3.82-1.52l-.08,0,0-.07c-.33-1.36-.62-2.59-.9-3.74l.11.09-6.36.08.09-.07c-.33,1.5-.59,2.73-.81,3.76v0h0a15.15,15.15,0,0,0-2.9,1.12l-.69.35a1.61,1.61,0,0,1-.23.12,1.48,1.48,0,0,1,.22-.15c.14-.08.36-.22.67-.38a14,14,0,0,1,2.9-1.18l0,0c.2-1,.45-2.26.75-3.77l0-.06h.07l6.36-.14h.09l0,.09c.29,1.16.59,2.38.93,3.73l-.09-.09a15.58,15.58,0,0,1,3.89,1.52h-.14l3.21-2.12.1-.06.08.08,4.59,4.41.09.09-.07.11-2,3.29v-.18a15.63,15.63,0,0,1,1.67,3.85l-.13-.13,3.77.78.14,0v.14q.06,3.1.12,6.36v.15l-.14,0-3.74.92.14-.14a15.81,15.81,0,0,1-1.53,3.9v-.19c.69,1.06,1.4,2.13,2.11,3.21l.08.13-.11.11-4.41,4.58-.11.11-.13-.08-3.29-2h.2a15.45,15.45,0,0,1-3.85,1.67l.14-.15c-.27,1.29-.54,2.58-.78,3.77l0,.15h-.15l-6.36.11H446l0-.15c-.32-1.29-.63-2.56-.91-3.73l.13.14a16.11,16.11,0,0,1-3.9-1.54h.19l-3.21,2.1-.13.08-.1-.1-4.57-4.42-.1-.1.07-.12,2-3.28v.18a16.23,16.23,0,0,1-1.67-3.85l.13.11-3.77-.79-.12,0v-.13q0-3.34-.1-6.36v-.11l.11,0,3.74-.91-.1.09a15.5,15.5,0,0,1,1.55-3.88v.12l-2.09-3.22-.05-.07.06-.06,4.44-4.55,0,0,0,0,2.42,1.51.62.39A2.09,2.09,0,0,1,440.88,347.91Z" style="fill:#ebebeb"></path><path d="M327.86,400.72c5.15-2.41,11.21-2.72,16.93-1.86,3.07.46,6.27,1.29,8.37,3.38s2.48,5.77.08,7.56c-1.43,1.07-3.42,1.23-5.27,1.21-4.48,0-9.44-.76-13,1.68-2,1.39-3.4,3.7-5.84,4.39a6,6,0,0,1-6.34-2.56,8.18,8.18,0,0,1-.72-6.58A10,10,0,0,1,327.86,400.72Z" style="fill:#ebebeb"></path><path d="M316.06,380.09c3.15,4.08,9.27,2.73,12.11.24s4-6.09,5.13-9.52c2.49-7.85,5-16.09,3.15-24.08a12.87,12.87,0,0,0-3.39-6.55,8.25,8.25,0,0,0-7.32-2.21c-3.08.74-5,3.48-6.39,6.08a53,53,0,0,0-6.26,24.64c0,4,.5,8.13,3,11.4" style="fill:#ebebeb"></path><path d="M307.42,385.94c3.42-3.68,4.06-9,2.54-13.64s-5-8.52-8.92-11.72a49.24,49.24,0,0,0-16-8.53,18.53,18.53,0,0,0-7.18-1.11c-2.44.21-4.89,1.34-6,3.31-1.68,2.9-.07,6.42,1.67,9.29A110.72,110.72,0,0,0,284,378c3.15,3.67,6.75,7.29,11.54,8.95s9.77,1.47,12.31-1.54" style="fill:#ebebeb"></path><path d="M315.85,441.54a8.36,8.36,0,0,0,.28-1.86c.15-1.34.33-3,.55-5.05a66.88,66.88,0,0,1,1.25-7.4,53,53,0,0,1,3-8.75,31.42,31.42,0,0,1,4.93-7.91,18.07,18.07,0,0,1,6.23-4.69,18.26,18.26,0,0,1,5.25-1.48,11.77,11.77,0,0,0,2-.27,11,11,0,0,0-2.07,0,17.16,17.16,0,0,0-5.47,1.29,18.34,18.34,0,0,0-6.58,4.73,31.1,31.1,0,0,0-5.11,8.08,49.62,49.62,0,0,0-2.95,8.88,57.68,57.68,0,0,0-1.09,7.5c-.17,2.15-.24,3.89-.27,5.09A7.85,7.85,0,0,0,315.85,441.54Z" style="fill:#e0e0e0"></path><path d="M316.23,437.65a3.23,3.23,0,0,0,.06-.86c0-.65,0-1.46,0-2.46,0-2.13,0-5.21.12-9,.21-7.62.94-15.81,2.33-27.37,1.33-10.87,3.11-23.52,5-31.74.4-1.87.81-3.55,1.19-5s.68-2.75,1-3.78.46-1.76.63-2.38a3.34,3.34,0,0,0,.16-.85,3.64,3.64,0,0,0-.32.8l-.79,2.36c-.35,1-.71,2.28-1.12,3.75s-.87,3.15-1.31,5a253.21,253.21,0,0,0-5.23,29.45,271.93,271.93,0,0,0-2.09,29.76c-.05,3.82,0,6.91.14,9,.07,1,.13,1.81.17,2.46A4.43,4.43,0,0,0,316.23,437.65Z" style="fill:#e0e0e0"></path><path d="M316.29,417.31a14.33,14.33,0,0,0,0-2.56,61.67,61.67,0,0,0-.87-6.95,83.89,83.89,0,0,0-2.49-10.13,77.56,77.56,0,0,0-4.68-12,63.63,63.63,0,0,0-13.73-19.37,34.12,34.12,0,0,0-3.23-2.72c-.49-.38-.93-.75-1.38-1.05l-1.25-.79a19.57,19.57,0,0,0-2.39-1.38c-.13.17,3.38,2,7.82,6.32A66.78,66.78,0,0,1,307.46,386a89.61,89.61,0,0,1,4.7,11.87,94.86,94.86,0,0,1,2.66,10c.58,2.89.92,5.25,1.12,6.88A14.72,14.72,0,0,0,316.29,417.31Z" style="fill:#e0e0e0"></path><polygon points="292.5 432.41 294.75 460.33 334.35 460.33 336.61 432.41 292.5 432.41" style="fill:#e0e0e0"></polygon><rect x="288.67" y="421.4" width="52.66" height="11.01" style="fill:#e0e0e0"></rect><polygon points="288.67 459.26 288.67 462.31 291.15 462.31 340.46 462.31 340.46 459.26 288.67 459.26" style="fill:#ebebeb"></polygon><polygon points="293.57 467.68 291.15 462.31 338.57 462.31 335.75 467.68 293.57 467.68" style="fill:#e0e0e0"></polygon><path d="M335.87,441.53s-.05.1-.19.26l-.59.71-2.3,2.67-.11.12-.1-.12-5.66-7.1h.32l-5.58,7.16-.17.22-.2-.21-6.62-7.13h.38l-.36.42-5.92,6.72-.2.22-.18-.23-5.58-7.16.32,0-6.87,7.09-.13.13-.09-.14-2.15-3.28-.55-.87a1.16,1.16,0,0,1-.17-.31s.09.08.23.27l.61.84,2.26,3.22-.22,0,6.77-7.18.17-.18.16.2,5.63,7.12h-.38l5.9-6.73.37-.42.19-.21.19.21,6.6,7.15h-.37l5.64-7.12.16-.21.16.21,5.55,7.18h-.2l2.4-2.61.64-.67A1.73,1.73,0,0,1,335.87,441.53Z" style="fill:#f5f5f5"></path><path d="M337.16,432.22c0,.13-9.93.23-22.17.23s-22.16-.1-22.16-.23S302.75,432,315,432,337.16,432.1,337.16,432.22Z" style="fill:#f5f5f5"></path><path d="M339.16,462.61c0,.12-10.79.22-24.09.22s-24.09-.1-24.09-.22,10.78-.22,24.09-.22S339.16,462.49,339.16,462.61Z" style="fill:#f5f5f5"></path><rect x="222.86" y="277.45" width="47.4" height="47.4" rx="9.61" style="fill:#e0e0e0"></rect><path d="M236.07,312.69a1,1,0,0,1-.74-.3,1.06,1.06,0,0,1,0-1.49l5.63-5.64a9.7,9.7,0,0,1,.7-12.83,9.63,9.63,0,1,1,.79,14.33l-5.64,5.63A1,1,0,0,1,236.07,312.69Zm12.4-21a7.55,7.55,0,1,0,5.32,2.21A7.48,7.48,0,0,0,248.47,291.71Z" style="fill:#fff"></path><rect x="421.39" y="69.06" width="44.98" height="44.98" rx="10.38" style="fill:#e0e0e0"></rect><path d="M445.73,99.34a1.9,1.9,0,1,1-1.89-1.9A1.9,1.9,0,0,1,445.73,99.34Z" style="fill:#fff"></path><path d="M440,96.9a5.27,5.27,0,0,1,7.61-.1,1.06,1.06,0,0,0,1.51-1.5,7.42,7.42,0,0,0-10.62.09c-.94,1,.56,2.51,1.5,1.51Z" style="fill:#fff"></path><path d="M433.61,88.08A15.52,15.52,0,0,1,443.78,84a15.1,15.1,0,0,1,10.39,4c1,.94,2.52-.56,1.51-1.5a17.25,17.25,0,0,0-11.89-4.6,17.85,17.85,0,0,0-11.69,4.68c-1,.9.47,2.41,1.51,1.52Z" style="fill:#fff"></path><path d="M436.15,93a10.43,10.43,0,0,1,15.32-.22,1.07,1.07,0,0,0,1.52-1.5,12.55,12.55,0,0,0-18.34.2c-.93,1,.56,2.53,1.5,1.52Z" style="fill:#fff"></path></g><g id="freepik--Character--inject-9"><path d="M111.59,164c-4.57-2.81-5.76-9.46-3.38-14.26s7.56-7.78,12.84-8.72a24.71,24.71,0,0,1,21.37,6.74c3,3,5.4,6.86,9.38,8.18,3.5,1.16,7.34,0,11,.43,4.92.57,9.17,4,11.75,8.21s3.68,9.17,4.33,14.07c.6,4.5,1,9.44,4.2,12.69s7.92,3.77,11.75,6c7.2,4.19,9.66,14.79,5.06,21.73-1.47,2.21-3.6,4.25-3.73,6.9-.13,2.42,1.47,4.55,2.23,6.85,2,5.92-2.79,13.06-9,13.51-3.15.23-6.53-.95-9.33.5s-3.77,4.83-5.53,7.42a13.47,13.47,0,0,1-16.36,4.48c-2.33-1.1-4.54-2.94-7.11-2.73s-4.55,2.43-7.06,3c-3.3.69-6.47-1.7-8.48-4.4s-3.42-5.9-6-8.1c-3.34-2.89-8-3.54-12.17-4.92A34.09,34.09,0,0,1,97.43,194" style="fill:#263238"></path><path d="M160.38,222.49A9.28,9.28,0,0,1,164,220h-.28a5.36,5.36,0,0,1,.78-.15,3.68,3.68,0,0,1,2.88.32h0a6.82,6.82,0,0,1,3.77,3.19,8,8,0,0,1-.83,8.3A6.15,6.15,0,0,1,159,229.72,7.61,7.61,0,0,1,160.38,222.49Z" style="fill:#455a64"></path><path d="M101.44,273l-6.1-88.28a7.5,7.5,0,0,1,6.38-7.89l39.33-11.76c12.68-1.9,21.82,13.42,23.18,26.17,1.5,14.16,2.78,31.51,1.56,42.17-2.47,21.45-20,24.95-20,24.95s.19,21.81.43,29.55l5.22,23.95Z" style="fill:#ffbf9d"></path><path d="M156.5,209.56a2.75,2.75,0,0,1-2.52,2.87,2.61,2.61,0,0,1-2.92-2.34,2.74,2.74,0,0,1,2.51-2.88A2.64,2.64,0,0,1,156.5,209.56Z" style="fill:#263238"></path><path d="M160.72,199c-.32.37-2.45-1.07-5.39-.93s-5,1.69-5.37,1.35c-.16-.16.15-.81,1.06-1.54a7.53,7.53,0,0,1,4.28-1.52,7.24,7.24,0,0,1,4.32,1.19C160.55,198.18,160.88,198.81,160.72,199Z" style="fill:#263238"></path><path d="M130,210.46a2.73,2.73,0,0,1-2.51,2.87,2.63,2.63,0,0,1-2.93-2.34,2.75,2.75,0,0,1,2.52-2.88A2.62,2.62,0,0,1,130,210.46Z" style="fill:#263238"></path><path d="M131.85,200.77c-.33.37-2.47-1.07-5.4-.94s-5,1.7-5.37,1.35c-.16-.15.15-.81,1.07-1.53a7.4,7.4,0,0,1,4.27-1.53,7.24,7.24,0,0,1,4.32,1.19C131.67,200,132,200.6,131.85,200.77Z" style="fill:#263238"></path><path d="M143.46,222.11c0-.16,1.79-.56,4.73-1.07.75-.11,1.46-.29,1.56-.8a3.82,3.82,0,0,0-.6-2.21l-2.46-5.62c-3.44-8-6-14.6-5.63-14.74s3.37,6.25,6.8,14.25l2.38,5.66a4.33,4.33,0,0,1,.51,2.93,1.88,1.88,0,0,1-1.19,1.15,5,5,0,0,1-1.26.24C145.32,222.19,143.47,222.28,143.46,222.11Z" style="fill:#263238"></path><path d="M145.7,256.9s-13,1.46-27.57-6.47c0,0,6.4,15.77,27.63,12.86Z" style="fill:#ff9a6c"></path><path d="M143.32,229.12a7.23,7.23,0,0,0-6.09-2.9,4.72,4.72,0,0,0-3.78,2.27,4.32,4.32,0,0,0,5.12,6.26,10.71,10.71,0,0,0,4.22-2.86,3.46,3.46,0,0,0,.88-1.15,1.51,1.51,0,0,0-.18-1.48" style="fill:#ff9a6c"></path><path d="M134.89,224.52c.48-.05.62,3.14,3.45,5.29s6.21,1.65,6.26,2.09c.05.2-.73.66-2.17.76a8,8,0,0,1-5.21-1.57,6.9,6.9,0,0,1-2.69-4.45C134.35,225.32,134.67,224.51,134.89,224.52Z" style="fill:#263238"></path><path d="M132.63,188.61c-.26.81-3.21.56-6.64,1.12s-6.18,1.62-6.67.93c-.22-.34.23-1.11,1.32-1.93a11.75,11.75,0,0,1,10.14-1.57C132.07,187.62,132.73,188.22,132.63,188.61Z" style="fill:#263238"></path><path d="M159.25,188.9c-.48.69-2.54.08-5,.16s-4.48.64-5,0c-.22-.33.07-1,1-1.68a7.2,7.2,0,0,1,8-.1C159.16,187.89,159.47,188.56,159.25,188.9Z" style="fill:#263238"></path><path d="M178.41,185.09a14.67,14.67,0,0,0-5.74-8c-1.55-1-3.35-1.56-4.79-2.69-3.11-2.44-3.89-6.76-5.84-10.2a16.12,16.12,0,0,0-12.39-8c-4.23-.37-8.56,1-12.69,0-3.06-.73-5.74-2.66-8.83-3.2-6-1.06-11.54,3.33-15.83,7.69,0,4.29,3.51,7.12,6.84,9.83a14.94,14.94,0,0,0,12.12,3c3.27-.65,6.84-2.36,9.71-.66s3.2,6.3,5.88,8.56c3.83,3.23,9.81.06,14.63,1.41,3.73,1.05,6.1,4.56,8.61,7.51s6.24,5.73,9.93,4.57A43.11,43.11,0,0,0,178.41,185.09Z" style="fill:#263238"></path><path d="M133.06,167.58c-2.7-.73-8.24-2.39-9.71-4.71-3.21-5-8.79-8.4-14.44-8a13.56,13.56,0,0,0-12.06,10.91,19.53,19.53,0,0,0-16.63,11,20.48,20.48,0,0,0-1,2.52,14.87,14.87,0,0,0-.81,12.48c1,2.42,2.6,5.1,1.38,7.4s-4.46,2.47-7,3.37a9.86,9.86,0,0,0-6,11.1c.37,1.62,1.17,3.22.85,4.84s-1.75,2.91-2.84,4.24a12.29,12.29,0,0,0,7.49,19.88c1.92.32,4,.21,5.67,1.2,1.92,1.14,2.78,3.42,4.15,5.18a10.6,10.6,0,0,0,11.53,3.43,10,10,0,0,0,2.29-1.2c1.31,1.76,3.34,2.94,6.78,2.89l-1.45-44.93a3.72,3.72,0,0,0,2.75,2.09c7.24,1.53,8.08-13.35,6.41-17.36a41.77,41.77,0,0,0,7.13-7.71c1.94-3,3.58-11,3.1-14.63C123.23,171.72,134.25,167.9,133.06,167.58Z" style="fill:#263238"></path><path d="M103.27,212.84c-.3-4.56-5.9-5.46-9.83-3.11-2.15,1.29-3.78,3.84-3.51,8.69.73,12.92,13.55,9.53,13.55,9.16S103.61,218.19,103.27,212.84Z" style="fill:#ffbf9d"></path><path d="M99.26,222.9c-.06,0-.21.17-.58.37a2.31,2.31,0,0,1-1.69.13c-1.39-.43-2.66-2.53-2.85-4.86a7.37,7.37,0,0,1,.45-3.26,2.6,2.6,0,0,1,1.59-1.82,1.16,1.16,0,0,1,1.37.54c.19.36.12.62.19.64s.27-.24.13-.76a1.4,1.4,0,0,0-.55-.79,1.71,1.71,0,0,0-1.26-.25A3.16,3.16,0,0,0,93.82,215a7.63,7.63,0,0,0-.58,3.65c.23,2.6,1.7,5,3.59,5.39a2.42,2.42,0,0,0,2-.45C99.26,223.22,99.31,222.92,99.26,222.9Z" style="fill:#ff9a6c"></path><path d="M115.2,164.35a7.65,7.65,0,0,0-2.55,2.2c-1.25,1.78-1.68,5.16-.82,8.95l.08.33-.32.08a12.5,12.5,0,0,0-8.22,7.47,9.66,9.66,0,0,0-.63,3.16,18.94,18.94,0,0,0,.46,3.41,26.34,26.34,0,0,1,.54,3.67,6.07,6.07,0,0,1-1,3.84c-1.57,2.47-4.14,3.71-6.34,4.91a21.82,21.82,0,0,0-6,4,16.12,16.12,0,0,0-4.67,10.91,16.91,16.91,0,0,0,1.82,8c.89,1.76,1.62,2.59,1.55,2.64s-.22-.17-.56-.57a13,13,0,0,1-1.3-1.9,16.3,16.3,0,0,1-2.15-8.14,16.65,16.65,0,0,1,4.71-11.49A22.43,22.43,0,0,1,96,201.58c2.2-1.2,4.62-2.43,6-4.61,1.4-2,.73-4.54.32-6.85a18.65,18.65,0,0,1-.45-3.58,10.35,10.35,0,0,1,.7-3.46,13.12,13.12,0,0,1,8.85-7.82l-.24.41c-.83-4-.27-7.48,1.17-9.34a5.41,5.41,0,0,1,2-1.68A3.14,3.14,0,0,1,115.2,164.35Z" style="fill:#455a64"></path><path d="M94.5,227.81a9.42,9.42,0,0,1,3.64-2.47h-.28a5.24,5.24,0,0,1,.79-.15,3.69,3.69,0,0,1,2.88.32h0a6.74,6.74,0,0,1,3.76,3.18,8,8,0,0,1-.82,8.3A6.15,6.15,0,0,1,93.12,235,7.67,7.67,0,0,1,94.5,227.81Z" style="fill:#455a64"></path><path d="M281.93,325.32l8.81-3.38s2.41-7.69,4-9.94,10.1-9.17,10.6-9.35,6.09-12.72,8.64-12.32,4.3,2.2,3.59,5.6-6.36,10.19-4.8,11.31a11.49,11.49,0,0,0,4.11,1.54s.7-3.91,2.84-5.17,4.59.83,4.59.83l.06,1.69,2.12-1.94s2.23-7.85,5.6-7.81a13.73,13.73,0,0,1,3.33-4.48,2.91,2.91,0,0,1,4.48,1.31h0L333.85,311l-16.67,18.36s-7.81,3-9.8,3.92-11,7.18-15,8.52-8.65,3.37-8.65,3.37Z" style="fill:#ffbf9d"></path><path d="M305.31,319.84a10.8,10.8,0,0,0-3.16-.32,14.7,14.7,0,0,0-7.55,1.66,9.15,9.15,0,0,0-3.13,3,15,15,0,0,0-1.49,3.16,9.46,9.46,0,0,0-.72,3.1,15.6,15.6,0,0,0,1.29-2.88c.76-1.73,2-4.23,4.48-5.65a16.23,16.23,0,0,1,7.13-1.8A13.22,13.22,0,0,0,305.31,319.84Z" style="fill:#ff9a6c"></path><path d="M313,307.69c.13-.18-.78-1-2.2-1.43s-2.63-.24-2.62,0,1.09.44,2.38.83S312.88,307.9,313,307.69Z" style="fill:#ff9a6c"></path><path d="M331.89,311a18,18,0,0,1,.39-3.86c.35-2.4.89-5.75,1.56-9.6l.25.5c-.59-.27-1.3-.69-1.83-.86a2.28,2.28,0,0,0-1.77.23,5.14,5.14,0,0,0-2.06,2.49,18,18,0,0,0-1.1,3.07c-.48,2.06-.8,4-1.09,5.56a33.73,33.73,0,0,1-1.08,5.14c-.13,0,0-2,.4-5.25.21-1.61.46-3.52.91-5.65a18,18,0,0,1,1.1-3.27,6,6,0,0,1,2.47-2.95,3.28,3.28,0,0,1,2.49-.29,17.65,17.65,0,0,1,2,.94l.32.15-.07.35c-.72,3.85-1.38,7.18-1.89,9.55A18.08,18.08,0,0,1,331.89,311Z" style="fill:#ff9a6c"></path><path d="M310,326.19s0-.27.08-.76a10.43,10.43,0,0,1,.71-2,26.31,26.31,0,0,1,4.38-6.38l-.1.16c1.16-3.41.11-8.35,3.2-12.76a4,4,0,0,1,3.21-1.43,5.83,5.83,0,0,1,3.11,1.09l.22.15,0,.27c-.62,5-1.19,9.31-1.64,12.37a8,8,0,0,1-1.12,3.49c-.43.74-.74,1.08-.79,1a6.3,6.3,0,0,1,.51-1.2,8.63,8.63,0,0,0,.82-3.44c.28-3.07.73-7.39,1.29-12.37l.19.43a5.08,5.08,0,0,0-2.59-.88,3.06,3.06,0,0,0-2.46,1.11,7.31,7.31,0,0,0-1.44,3,30.17,30.17,0,0,0-.7,3.26c-.18,1.09-.23,2.09-.36,3.17a17.78,17.78,0,0,1-.65,2.94l0,.09-.06.07a29.77,29.77,0,0,0-4.54,6C310.31,325.18,310.11,326.22,310,326.19Z" style="fill:#ff9a6c"></path><path d="M95.76,270.81c.54-.76,4.07-7.59,4.07-7.59l20.06,17.29s19.66,16.46,19.66,15.4l3.14-15.84,3.86-14.41,7.21,10.9s22.67,44.43,22.67,45,14,46.52,14,46.52l-3,18.65-.36,66.05L144.82,451l-8.34-13.31L122.1,353Z" style="fill:#fff"></path><polygon points="148.48 439.67 193.5 439.67 200.63 469.93 131.4 469.93 148.48 439.67" style="fill:#263238"></polygon><path d="M147.06,426.9c-1.41-21.69-.82-62.62-9.12-84S96.3,269.12,96.3,269.12l-8.19,12.72-21.45,8.05,29.1,118s-11.2,26.4-16.54,41.82c-1.6,4.61-3.75,12.43-6.11,20.24h73.66C147.42,452.77,147.73,437.15,147.06,426.9Z" style="fill:#00A3EA"></path><path d="M288.1,318.83l-56.78,31.56L192,294.24l-.34-.45c-4.48-5.93-8.88-12.45-16.12-14.08l-1.1-.25,2.1,67.21s28,30.84,43.67,43.59c4.67,3.8,16.51,1.43,22.15-1.69,22.59-12.47,61.19-44.44,61.19-44.44Z" style="fill:#00A3EA"></path><path d="M193.1,408.38s4.14-32.08,5.5-40.14c7.1-42.16-24.18-88.78-24.18-88.78l-14.3-2.37-12.34-10.18,5.45,15.22s17.92,50.12,21.48,66.14,5.34,65.24,5.89,64.05c.33-.69,2.48,29.73,5.19,57.61h30.35Z" style="fill:#00A3EA"></path><path d="M190.46,372.66a5.22,5.22,0,0,1,0-1.05c0-.74.09-1.73.16-3,0-.66.08-1.37.13-2.15s0-1.65,0-2.56c0-1.84,0-3.93-.14-6.24a130,130,0,0,0-7-35.31,123.14,123.14,0,0,0-5.7-14v0h0a118.72,118.72,0,0,0-6.58-12.81c-2.17-3.78-4.17-7.06-5.85-9.78l-4-6.34c-.43-.7-.78-1.26-1.06-1.7a2.83,2.83,0,0,1-.33-.61,3.35,3.35,0,0,1,.43.55c.29.42.67,1,1.15,1.63,1,1.44,2.39,3.56,4.12,6.25s3.78,6,6,9.71a116.32,116.32,0,0,1,6.7,12.85v0a117.91,117.91,0,0,1,5.76,14.1,124.93,124.93,0,0,1,6.86,35.52c.15,2.32.07,4.42,0,6.26,0,.92,0,1.78-.06,2.57s-.13,1.5-.19,2.16c-.13,1.23-.22,2.22-.3,3A6.51,6.51,0,0,1,190.46,372.66Z" style="fill:#263238"></path><path d="M139.18,296.15a3.46,3.46,0,0,1-.8-.35l-2.16-1.14-7.64-4.23.45-.22c-.37,3.43-1,7.44-1.63,11.71-.26,1.74-.5,3.43-.7,5.06l-.07.62-.48-.4c-4.08-3.48-7.64-6.54-10.15-8.74l-2.94-2.62a7.08,7.08,0,0,1-1-1,5.67,5.67,0,0,1,1.16.82l3.07,2.46c2.59,2.12,6.2,5.11,10.31,8.56l-.56.22c.19-1.64.42-3.34.68-5.08.63-4.28,1.3-8.28,1.72-11.68l.06-.46.39.23,7.51,4.44,2.09,1.29C139,295.94,139.2,296.12,139.18,296.15Z" style="fill:#263238"></path><path d="M150.85,276.56a8.45,8.45,0,0,1,.06,1.8c0,1.3,0,2.95-.09,4.92-.1,4.16-.3,9.89-.55,16.23,0,.15,0,.31,0,.46l-.05,1.11-.59-.94c-2.87-4.53-5.5-8.68-7.59-12l.48-.06-2.08,5.71a12.55,12.55,0,0,1-.87,2.08,12.23,12.23,0,0,1,.59-2.17c.48-1.51,1.1-3.46,1.85-5.79l.17-.53.31.47,7.72,11.88-.63.17c0-.15,0-.31,0-.46.25-6.33.52-12.07.75-16.22.13-2,.23-3.61.31-4.91A8.6,8.6,0,0,1,150.85,276.56Z" style="fill:#263238"></path><path d="M66.66,289.89a32.72,32.72,0,0,0-5,3.83A34,34,0,0,0,53,307.39c-2,5.79-4,12.91-5.2,17.39l-5.42,82.35a48.34,48.34,0,0,0,3.46,21.43l16.81,41.37H98.91L79.34,414.58,86,353.52Z" style="fill:#00A3EA"></path><polyline points="89 280.47 96.97 304.39 105.47 304.39 99.95 307.9 143.56 391.23" style="fill:#00A3EA"></polyline><path d="M143.56,391.23s-.08-.09-.2-.29l-.5-.88c-.45-.84-1.08-2-1.87-3.44l-6.77-12.7-22.1-42L99.67,308.05l-.14-.26.25-.16,5.52-3.5.17.56-8.5,0h-.2l-.06-.19c-2.38-7.3-4.33-13.28-5.71-17.49-.64-2-1.15-3.65-1.52-4.81-.16-.52-.28-.93-.38-1.26a1.53,1.53,0,0,1-.1-.44,3,3,0,0,1,.18.41c.11.32.26.73.45,1.24l1.67,4.76c1.42,4.2,3.45,10.15,5.93,17.42l-.26-.18,8.5,0h1l-.88.56-5.51,3.53.12-.42c3.8,7.26,8,15.33,12.5,23.83,8.54,16.42,16.28,31.29,21.92,42.11,2.75,5.37,5,9.73,6.57,12.8L143,390l.44.92A2.18,2.18,0,0,1,143.56,391.23Z" style="fill:#263238"></path><path d="M72.91,301.55a53.17,53.17,0,0,1,11.77,45.26" style="fill:#00A3EA"></path><path d="M84.68,346.81c-.14,0,.45-2.69.7-7a55.55,55.55,0,0,0-.11-7.65,60.54,60.54,0,0,0-1.57-9.22,61.71,61.71,0,0,0-3.12-8.82A55.13,55.13,0,0,0,77,307.35c-2.34-3.68-4.16-5.71-4-5.8a9.55,9.55,0,0,1,1.31,1.39,20.4,20.4,0,0,1,1.42,1.73c.52.7,1.15,1.48,1.73,2.41a51.61,51.61,0,0,1,3.8,6.74,56.8,56.8,0,0,1,3.2,8.91,56,56,0,0,1,1.54,9.34,49.17,49.17,0,0,1,0,7.73c-.05,1.1-.22,2.08-.33,2.95a21.8,21.8,0,0,1-.39,2.21A11,11,0,0,1,84.68,346.81Z" style="fill:#263238"></path><path d="M98.91,469.93a1.47,1.47,0,0,1-.13-.28c-.08-.21-.18-.48-.32-.82-.28-.77-.67-1.84-1.18-3.2-1-2.82-2.47-6.84-4.26-11.8-3.56-10-8.48-23.84-13.93-39.16l0-.06v-.06c0-.42.1-.88.15-1.35,1.84-16.47,3.5-31.38,4.71-42.21.62-5.37,1.13-9.73,1.49-12.79.18-1.48.32-2.64.43-3.47l.12-.9a1.41,1.41,0,0,1,.06-.31,1,1,0,0,1,0,.31c0,.24,0,.54-.07.91-.08.83-.19,2-.33,3.49-.32,3.06-.77,7.42-1.33,12.8-1.17,10.84-2.78,25.75-4.55,42.23,0,.46-.11.92-.15,1.35l0-.12,13.79,39.22,4.1,11.85c.47,1.38.83,2.46,1.09,3.23l.27.85A1.33,1.33,0,0,1,98.91,469.93Z" style="fill:#263238"></path><path d="M184,300.84a81.06,81.06,0,0,1,5.89,11.2c.84,1.77,1.54,3.8,2.4,5.93s1.58,4.49,2.24,7,1.32,5.13,2,7.88c.25,1.39.51,2.8.77,4.23s.42,2.9.64,4.37a141,141,0,0,1,.4,30.52c-.22,1.93-.41,3.69-.59,5.24s-.41,2.86-.56,3.94l-.4,2.49a8.72,8.72,0,0,1-.17.86,4.45,4.45,0,0,1,.07-.88c.07-.61.17-1.45.3-2.49s.34-2.41.47-3.95.33-3.31.51-5.24a148.91,148.91,0,0,0-.55-30.42c-.22-1.47-.37-2.94-.63-4.36s-.51-2.83-.76-4.21c-.62-2.73-1.18-5.38-1.92-7.85s-1.48-4.8-2.18-7-1.51-4.16-2.33-5.93l-1.11-2.56c-.35-.8-.74-1.53-1.07-2.23-.68-1.4-1.25-2.6-1.8-3.55s-.89-1.67-1.19-2.21A6.86,6.86,0,0,1,184,300.84Z" style="fill:#263238"></path><path d="M231.88,367.91a9.19,9.19,0,0,1-1-2.46,24.58,24.58,0,0,1-.56-12.81,9.13,9.13,0,0,1,.82-2.54c.08,0-.19,1-.46,2.61a29.32,29.32,0,0,0,.56,12.64C231.6,366.93,232,367.88,231.88,367.91Z" style="fill:#263238"></path></g><g id="freepik--Table--inject-9"><path d="M460.6,469.93c0,.14-94.3.26-210.59.26s-210.61-.12-210.61-.26,94.28-.26,210.61-.26S460.6,469.79,460.6,469.93Z" style="fill:#263238"></path></g></svg>
